<?xml version="1.0" encoding="UTF-8" standalone="no"?>
<!-- Created with Inkscape (http://www.inkscape.org/) -->

<svg
   width="1023.9999"
   height="1023.9999"
   viewBox="0 0 270.93331 270.93332"
   version="1.1"
   id="svg1"
   xml:space="preserve"
   xmlns="http://www.w3.org/2000/svg"
   xmlns:svg="http://www.w3.org/2000/svg"><defs
     id="defs1"><filter
       y="-0.099542554"
       height="1.2146386"
       style="color-interpolation-filters:sRGB"
       id="filter392"
       x="-0.077097606"
       width="1.1662417"><feGaussianBlur
         stdDeviation="5"
         result="result6"
         id="feGaussianBlur391" /><feComposite
         result="result8"
         in="SourceGraphic"
         operator="atop"
         in2="result6"
         id="feComposite391" /><feComposite
         result="result9"
         operator="over"
         in2="SourceAlpha"
         in="result8"
         id="feComposite392" /><feColorMatrix
         values="1 0 0 0 0 0 1 0 0 0 0 0 1 0 0 0 0 0 1 0 "
         result="result10"
         id="feColorMatrix392" /><feBlend
         in="result10"
         mode="normal"
         in2="result6"
         id="feBlend392"
         result="fbSourceGraphic" /><feColorMatrix
         result="fbSourceGraphicAlpha"
         in="fbSourceGraphic"
         values="0 0 0 -1 0 0 0 0 -1 0 0 0 0 -1 0 0 0 0 1 0"
         id="feColorMatrix411" /><feOffset
         id="feOffset411"
         dy="3"
         dx="3"
         in="fbSourceGraphic" /><feGaussianBlur
         id="feGaussianBlur411"
         stdDeviation="3"
         result="blur" /><feFlood
         id="feFlood411"
         flood-color="rgb(0,0,0)"
         flood-opacity="1"
         result="flood" /><feComposite
         id="feComposite411"
         in="flood"
         in2="fbSourceGraphic"
         operator="in"
         result="composite" /><feBlend
         id="feBlend411"
         in="blur"
         in2="composite"
         mode="normal" /></filter></defs><g
     id="g411"><g
       id="g386"
       transform="translate(30.691647,-12.964474)"
       style="display:inline;filter:url(#filter392)"><path
         id="path374"
         style="display:inline;fill:#6647cc;fill-opacity:1;stroke:#ffffff;stroke-width:0.264583"
         d="m 193.96389,150.81303 -0.14366,0.8599 -0.14418,0.85886 -0.0672,1.32343 -0.0656,1.32292 -2.18333,0.23461 -2.18281,0.23513 v 18.0759 18.07641 l 1.91875,0.0775 1.91823,0.077 0.076,2.29857 0.076,2.29805 0.71778,0.0832 0.71727,0.0832 8.46718,-0.0553 8.46667,-0.0537 0.98134,-0.0124 0.98082,-0.0119 0.077,-2.18178 0.077,-2.18333 1.71979,-0.13177 1.72031,-0.13281 v -10.58334 -10.58281 h -5.95416 -5.95312 l -0.0729,3.49177 -0.0739,3.4923 1.5291,0.0801 1.52859,0.0785 v 4.89531 4.89479 h -4.89479 -4.89479 v -14.28801 -14.28699 h 5.02656 5.02709 l 0.077,2.44688 0.076,2.44843 h 4.35529 4.35581 v -4.22196 -4.22145 l -1.78594,-0.0775 -1.78594,-0.0775 -0.076,-2.31511 -0.077,-2.3151 h -9.76685 z" /><path
         id="path375"
         style="display:inline;fill:#6647cc;fill-opacity:1;stroke:#ffffff;stroke-width:0.264583"
         d="m 26.214947,150.5469 -0.07648,2.18281 -0.077,2.18281 -2.248959,0.13178 -2.248958,0.13229 -0.0677,20.4401 -0.0677,20.43854 h 4.627108 4.627625 l 0.0708,-7.07657 0.07028,-7.07812 4.7625,-0.16795 4.762501,-0.16691 0.198437,0.11679 0.198438,0.11678 v 7.12825 7.12773 h 4.365625 4.365625 v -20.49384 -20.49487 l -2.182812,-0.077 -2.182813,-0.076 0.08113,-2.0159 0.08165,-2.01642 -0.610816,-0.16278 -0.610298,-0.16381 -8.918836,-0.004 z m 9.320362,8.20311 2.274796,0.004 2.27428,0.004 0.33538,0.21342 0.33538,0.21291 -0.0708,6.59598 -0.0708,6.59598 -4.502568,0.0537 -4.502051,0.0532 -0.392741,-0.24185 -0.392224,-0.24236 -0.07906,-6.4518 -0.07906,-6.45077 2.434994,-0.17312 z" /><path
         id="path376"
         style="display:inline;fill:#6647cc;fill-opacity:1;stroke:#ffffff;stroke-width:0.264583"
         d="m 55.562511,150.28283 v 22.88646 22.88594 h 4.497917 4.497917 l 0.03721,-7.73854 0.03772,-7.73907 0.04961,-0.52916 0.04961,-0.52917 0.04496,-0.34882 0.04548,-0.34881 2.447396,0.0548 2.447396,0.0543 0.75551,0.13539 0.754992,0.13332 -0.163814,1.02475 -0.163814,1.02422 0.161747,0.64389 0.161747,0.64596 1.495516,0.077 1.496033,0.0796 0.0708,6.68124 0.0708,6.6797 h 4.464843 4.464844 l 0.160714,-0.41755 0.160714,-0.41909 v -7.87704 -7.87601 l -2.298568,-0.17725 -2.298051,-0.17673 -0.149345,-0.14986 -0.148828,-0.15038 0.04547,-2.21692 0.04547,-2.21795 0.168466,-0.27285 0.168982,-0.27337 h 2.232938 2.233456 v -8.82995 -8.83099 l -0.165365,-0.82682 -0.165364,-0.82579 H 81.090153 78.90269 l -0.160714,-0.4191 -0.160714,-0.41806 V 151.981 150.28291 H 67.071887 Z m 9.128126,8.86406 h 4.7625 4.7625 v 5.02708 5.02709 l -4.67155,0.0362 -4.671549,0.0346 -0.146245,-2.02003 -0.146761,-2.02003 0.05581,-3.04168 z" /><path
         id="path377"
         style="display:inline;fill:#6647cc;fill-opacity:1;stroke:#ffffff;stroke-width:0.264583"
         d="m 155.64685,150.27094 -0.17932,9.59684 -0.17983,9.59838 0.1359,13.20798 0.13591,13.20694 0.22686,0.22686 0.22738,0.22686 4.07985,-0.0729 4.08089,-0.0729 0.0693,-10.92698 0.0687,-10.92595 1.78283,0.0791 1.78336,0.078 0.0739,3.699 0.0739,3.69796 0.19999,0.19999 0.19999,0.19999 1.43195,0.27182 1.43196,0.27078 0.20825,0.32815 0.20878,0.32814 0.004,2.16886 0.004,2.1699 1.52083,0.0791 1.52084,0.0801 0.13333,4.20698 0.13177,4.20698 0.52917,0.18913 0.52917,0.19017 2.38073,-0.0522 2.38228,-0.0522 1.52084,-0.045 1.52084,-0.046 v -23.15673 -23.15725 l -4.43074,0.0718 -4.43229,0.0734 -0.13177,8.9948 -0.13333,8.99583 -1.64486,0.0791 -1.64383,0.078 -0.0749,-2.98897 -0.0749,-2.98896 -1.2361,-0.0791 -1.2361,-0.0801 -0.24598,-0.31677 -0.24598,-0.31678 0.20877,-1.98541 0.20929,-1.98386 0.016,-1.28002 0.016,-1.27899 -2.13113,0.0801 -2.13217,0.0806 -0.23306,-0.37827 -0.23358,-0.37776 0.0186,-2.127 0.0191,-2.127 -4.23281,-0.0734 z" /><path
         id="path378"
         style="display:inline;fill:#6647cc;fill-opacity:1;stroke:#ffffff;stroke-width:0.264583"
         d="m 129.51407,150.22754 -1.64331,0.0274 -1.64176,0.0269 -0.078,2.05 -0.077,2.05104 -2.3151,0.076 -2.31511,0.077 v 18.76423 18.76475 l 2.18333,0.076 2.18178,0.0775 0.0724,1.85156 0.0718,1.85209 0.11886,0.33124 0.11834,0.33073 h 9.1307 9.13123 l 0.13488,-0.59376 0.13487,-0.59531 0.0693,-1.45469 0.0677,-1.45625 2.27325,-0.0749 2.27273,-0.076 0.17415,-6.53914 0.17415,-6.53862 10e-4,-12.20597 v -12.20649 l -0.59531,-0.15968 -0.5948,-0.15916 -1.50585,-0.004 -1.50637,-0.004 -0.14262,-0.23099 -0.14315,-0.23203 -0.17518,-1.88515 -0.17467,-1.88516 -2.41018,-0.007 -2.40916,-0.007 -5.29167,-0.0207 z m 1.19011,8.78757 h 4.86069 4.8612 l 0.19585,13.86686 0.19586,13.86789 -0.17777,0.28732 -0.17725,0.28784 h -4.70256 -4.70307 l -0.17621,-0.17622 -0.17674,-0.17673 v -13.979 z" /><path
         id="path379"
         style="display:inline;fill:#6647cc;fill-opacity:1;stroke:#ffffff;stroke-width:0.264583"
         d="m 93.001055,150.15054 -2.315105,0.076 -2.315104,0.077 v 22.87613 22.8756 h 4.626591 4.626592 l 0.06976,-8.66459 0.06976,-8.6651 6.879681,-0.14314 6.87865,-0.14366 0.0661,-0.0553 0.0661,-0.0548 v -1.82418 -1.82315 l 0.41858,-0.16071 0.41806,-0.16123 h 1.96319 1.96319 l 0.0217,-4.96094 0.0233,-4.9599 -0.0372,-4.49792 -0.0362,-4.49792 -0.18552,-0.18603 -0.185,-0.18707 -2.11615,-0.078 -2.11615,-0.078 -0.13178,-2.24896 -0.13229,-2.24896 -9.26093,-0.13333 z m 4.7625,8.99635 h 4.894275 4.89531 v 5.02708 5.02709 l -2.38125,0.0202 -2.38073,0.0196 -2.51406,-0.15193 -2.513545,-0.15296 v -4.89376 z" /><path
         id="path380"
         style="display:inline;fill:#6647cc;fill-opacity:1;stroke:#ffffff;stroke-width:0.264583"
         d="m -1.7724935,150.01825 -2.0241659,0.17105 -2.024166,0.17104 v 22.67097 22.67097 l 0.1762167,0.17725 0.1767334,0.1757 h 4.1857912 4.1857912 l 0.069246,-9.06198 0.069763,-9.06198 5.4239587,-0.13177 5.4239582,-0.13178 0.0739,-3.83542 0.0739,-3.83388 -0.45527,-0.33279 -0.455269,-0.33332 H 8.3162969 3.5041873 l -0.3028239,-0.36483 -0.3033407,-0.36484 0.072347,-4.72839 0.072347,-4.72788 6.6807295,-0.0708 6.6807298,-0.0713 v -4.3217 -4.32222 L 14.38001,150.1893 12.355844,150.01825 H 5.2916752 Z" /><path
         id="path381"
         style="display:inline;fill:#ffffff;fill-opacity:1;stroke:#ffffff;stroke-width:0.264583"
         d="m 131.56679,90.752617 h 4.01423 4.01267 l 0.31833,0.31678 0.31678,0.31781 v 0.9741 0.97514 l 0.59583,0.15916 0.59531,0.15968 0.7276,0.004 0.72709,0.004 v 3.96875 3.968233 h -1.28571 -1.28623 l -0.23512,1.65365 -0.23461,1.65416 -4.11707,0.0718 -4.11706,0.0734 -0.1819,-0.18397 -0.18293,-0.18293 v -1.52911 -1.52807 l -1.2573,-0.0811 -1.25677,-0.0811 -0.0729,-3.866953 -0.0734,-3.86798 1.21078,-0.13591 1.21026,-0.13591 0.14987,-0.1509 0.15141,-0.15037 0.13487,-1.20355 z"
         transform="translate(-30.69166,12.96459)" /><path
         id="path382"
         style="display:inline;fill:#6647cc;fill-opacity:1;stroke:#ffffff;stroke-width:0.264583"
         d="m 32.146885,77.073858 -1.653646,0.124024 -1.653646,0.124023 v 21.254001 21.254004 l 1.521354,0.0951 1.521355,0.0961 1.367358,0.0501 1.367358,0.0496 0.41858,-0.16072 0.418579,-0.1602 V 98.565054 77.33069 l -1.653646,-0.128157 z" /><path
         id="path383"
         style="display:inline;fill:#6647cc;fill-opacity:1;stroke:#ffffff;stroke-width:0.264583"
         d="m 173.78786,76.332302 h 3.66024 3.65973 l 0.0672,22.026563 0.0682,22.026045 h -3.55844 -3.55689 l -0.1788,-0.2868 -0.17725,-0.28732 0.008,-21.739246 z" /><path
         id="path384"
         style="display:inline;fill:#6647cc;fill-opacity:1;stroke:#ffffff;stroke-width:0.264583"
         d="m 59.531261,62.706259 v 4.579566 4.579566 l 0.337964,0.461987 0.337447,0.461987 1.051616,0.243913 1.051098,0.243913 3.812171,0.0062 3.812171,0.0062 -0.169499,5.066358 -0.169499,5.066874 -0.08217,0.08217 -0.08268,0.08216 -3.295406,0.152963 -3.295923,0.152962 -1.653646,0.143144 -1.653646,0.143143 v 28.538835 28.53779 l 0.311609,0.19275 0.311092,0.19224 1.607137,0.18397 1.606621,0.18397 2.248958,0.0331 2.248959,0.0341 3.775997,-0.27131 3.776514,-0.26975 0.980302,-0.32194 0.979785,-0.32194 0.466638,-1.98541 0.467155,-1.98386 2.266529,-10.71614 2.266528,-10.7146 1.317232,-5.95312 1.317233,-5.95416 0.887284,-3.43907 0.886768,-3.439584 0.821138,-2.128035 0.821139,-2.127519 1.591117,-1.875855 1.590601,-1.876371 1.388029,-1.059884 1.387512,-1.0604 1.681551,-0.841293 1.682068,-0.840775 1.998335,-0.51108 1.99884,-0.51108 h 2.56108 2.56109 l 2.03708,0.520898 2.03605,0.520899 2.17093,1.129647 2.17093,1.129647 2.05104,2.070158 2.05103,2.070674 0.63976,1.107426 0.64027,1.107943 0.786,2.248959 0.786,2.248958 1.36064,5.771747 1.36219,5.77122 2.09083,9.83868 2.09134,9.83919 1.09296,5.26996 1.09192,5.271 0.37311,0.71985 0.37207,0.72037 0.84077,0.29301 0.84181,0.29404 h 5.47615 5.47615 l 2.42208,-0.17209 2.42156,-0.17208 v -28.6489 -28.648382 l -1.38855,-0.14056 -1.38906,-0.140043 -3.54294,-0.136426 -3.54345,-0.136942 -0.093,-0.0925 -0.0925,-0.0925 -0.17622,-5.073593 -0.17725,-5.073592 3.81321,-0.0062 3.81217,-0.0062 1.0511,-0.243913 1.05058,-0.243913 0.33796,-0.461987 0.33797,-0.461987 V 67.285846 62.70628 h -45.24376 z" /><path
         id="path385"
         style="display:inline;fill:#6647cc;fill-opacity:1;stroke:#ffffff;stroke-width:0.264583"
         d="m 59.662471,35.970383 -2.11718,0.424264 -2.11667,0.423746 -1.90273,0.791167 -1.90272,0.791683 -1.80144,1.270206 -1.80144,1.270207 -1.46606,1.555978 -1.46658,1.55546 -0.69143,0.926042 -0.69195,0.926042 -0.79323,1.5875 -0.79324,1.5875 -0.48834,1.322917 -0.48834,1.322916 -0.13229,37.174477 -0.13229,37.173952 -10.71563,0.13178 -10.71563,0.13229 -1.76423,0.863 -1.76423,0.86299 -1.25264,1.38597 -1.25264,1.38596 -0.81958,1.71979 -0.81959,1.72031 v 25.92865 25.92917 l 0.58497,1.54926 0.58498,1.54874 0.69608,0.91312 0.69609,0.91209 1.76165,1.46296 1.76164,1.46296 1.23507,0.63304 1.23455,0.63303 1.05523,0.16899 1.05472,0.16794 13.58522,0.0367 13.58522,0.0362 0.75551,1.45521 0.75602,1.45572 1.45779,2.64532 1.45831,2.64583 0.9555,1.45469 0.9555,1.45625 2.63136,2.71714 2.63137,2.71663 2.48667,1.87741 2.48615,1.87689 2.82567,1.73271 2.82515,1.73322 2.64583,1.24902 2.64583,1.24902 1.94252,0.84491 1.942,0.84388 2.44481,0.88522 2.44482,0.8847 3.2861,0.79633 3.28559,0.79685 1.98437,0.28319 1.98438,0.2837 0.79375,0.0961 0.79375,0.0951 37.703639,-0.0429 37.70313,-0.0429 2.86959,-0.44028 2.86908,-0.4408 3.21634,-0.82527 3.21686,-0.82476 2.51302,-0.93896 2.51406,-0.93896 2.65979,-1.13533 2.66082,-1.13482 1.57199,-0.73587 1.57303,-0.73639 2.51406,-1.4366 2.51303,-1.43713 2.11718,-1.5291 2.11718,-1.52911 3.067,-3.13211 3.06596,-3.13159 1.49759,-2.00918 1.4981,-2.00814 1.18597,-2.62207 1.18598,-2.62154 0.008,-0.79427 0.008,-0.79272 0.21239,-0.33538 0.21187,-0.33382 14.26993,-0.0682 14.2689,-0.0667 1.32291,-0.524 1.32292,-0.524 1.69912,-0.92139 1.70016,-0.92087 1.42575,-1.3038 1.42627,-1.30431 0.61185,-1.21492 0.61185,-1.21388 0.29714,-1.40301 0.29817,-1.40198 -0.003,-24.65896 -0.003,-24.65896 -0.38654,-1.27331 -0.38602,-1.27279 -0.71262,-1.31 -0.71262,-1.30896 -1.4118,-1.33481 -1.41025,-1.33428 -1.40973,-0.64492 -1.4087,-0.64493 -1.40612,-0.26716 -1.40612,-0.26717 h -9.32759 -9.32812 l -0.16123,-0.41755 -0.16071,-0.41909 -0.004,-36.160067 -0.004,-36.160068 -0.40514,-1.719792 -0.40463,-1.719792 -0.94516,-1.719791 -0.94413,-1.719792 -1.32188,-1.661914 -1.32189,-1.662431 -1.69395,-1.437122 -1.69395,-1.437122 -1.79111,-1.064534 -1.79214,-1.064018 -1.97507,-0.731221 -1.97508,-0.731222 -76.99272,-0.07286 z m -1.19838,6.359819 77.481069,0.06718 77.48106,0.06718 2.25413,1.117244 2.25464,1.117245 h 5.1e-4 l 1.82625,1.930631 1.82676,1.931149 0.7581,1.41025 0.75912,1.41025 0.36277,1.362707 0.36329,1.362191 0.003,39.078754 0.003,39.078747 13.16302,0.0791 13.16302,0.0801 0.99787,0.62116 0.99942,0.62063 0.45579,0.83406 0.45682,0.83509 v 25.42015 25.42068 l -0.74259,0.9741 -0.74311,0.9741 -1.048,0.53381 -1.04799,0.53537 -1.91306,0.24857 -1.91307,0.24804 -89.69375,-0.0537 -89.694269,-0.0532 -22.51181,-0.13591 -22.51232,-0.13694 -1.09244,-0.75706 -1.09244,-0.75706 -0.53847,-1.11311 -0.53847,-1.11156 v -25.41344 -25.41292 l 0.57465,-0.7307 0.57412,-0.73019 1.07952,-0.48989 1.07901,-0.48989 13.02504,-0.006 13.02453,-0.006 0.077,-38.959893 0.077,-38.959898 0.67592,-2.295467 0.67645,-2.295467 1.11259,-1.473812 1.11259,-1.473812 0.90589,-0.905888 0.90589,-0.905371 1.15859,-0.797368 1.1591,-0.797367 1.62729,-0.548287 z m -0.52038,153.973548 76.839759,0.0739 76.83924,0.0755 0.19482,0.19378 0.19431,0.19483 -0.46819,1.73116 -0.46923,1.73116 -0.97875,1.5136 -0.97927,1.51412 -1.56889,1.69499 -1.56993,1.69395 -1.74512,1.3932 -1.74459,1.39319 -2.09135,1.36478 -2.09083,1.36477 -3.96926,1.9451 -3.96875,1.9451 -2.54403,0.93483 -2.54403,0.93638 -3.59203,0.94464 -3.59203,0.94516 -3.52072,0.5178 -3.52226,0.51832 -36.77709,-0.0202 -36.776569,-0.0212 -2.64583,-0.46561 -2.64583,-0.46612 -2.64584,-0.74414 -2.64583,-0.74414 -3.175,-1.17667 -3.175,-1.17616 -3.49901,-1.67173 -3.49901,-1.67122 -2.32183,-1.51412 -2.32182,-1.51308 -1.85208,-1.51877 -1.85209,-1.51981 -1.73632,-1.81694 -1.73582,-1.81746 -1.07952,-1.45469 -1.079,-1.45521 -0.82269,-1.55908 -0.82269,-1.55804 v -0.36794 z"
         transform="translate(-30.69166,12.96459)" /><path
         d="m 181.24425,48.412557 -77.19426,0.0739 -77.194772,0.07441 -1.545125,0.472322 -1.545126,0.47284 -1.497583,0.678511 -1.497583,0.678512 -1.760099,1.162203 -1.7601,1.162203 -2.113049,2.232422 -2.113566,2.232422 -1.339454,2.725415 -1.33997,2.725415 -0.160196,0.926042 -0.160197,0.926042 -0.096635,0.529166 -0.096635,0.529167 -0.020154,36.300631 -0.020154,36.29959 -10.64947973,0.0801 -10.64947927,0.0801 -1.739429,0.85111 -1.738912,0.85111 -1.343071,1.41955 -1.342554,1.42007 -0.663525,1.30897 -0.664042,1.31 -0.305925,1.57923 -0.305924,1.57923 0.08992,25.1349 0.08992,25.13593 0.497127,1.32189 0.497127,1.32291 0.762745,1.12138 0.763261,1.12087 1.892391,1.62884 1.892907,1.62884 1.470195,0.69039 1.470711,0.68989 14.3924042,0.13177 14.3929208,0.13229 1.228349,2.38074 1.228349,2.38228 0.747758,1.32292 0.747758,1.32188 1.16737,1.80609 1.166338,1.80506 2.440678,2.53008 2.440161,2.52956 1.719792,1.37201 1.719791,1.37201 2.420525,1.63917 2.42104,1.63918 3.589962,1.86397 3.590479,1.86397 2.455664,1.06815 2.455664,1.0666 2.087728,0.7643 2.088245,0.76377 2.409672,0.64493 2.410189,0.64595 2.18333,0.43512 2.183329,0.43511 2.182296,0.21084 2.182296,0.21136 35.851567,0.0336 35.85104,0.0331 4.49792,-0.51263 4.49791,-0.51315 2.72697,-0.67489 2.72697,-0.67438 1.37407,-0.4377 1.37408,-0.43821 3.30677,-1.3038 3.3073,-1.30535 3.96875,-1.942 3.96926,-1.942 2.9099,-1.92184 2.91094,-1.92185 3.00705,-2.92695 3.00808,-2.92696 1.65055,-2.11718 1.65003,-2.11615 0.64544,-1.05885 0.64388,-1.05782 0.90486,-1.98437 0.90589,-1.98489 0.14211,-1.19011 0.14211,-1.19063 14.02188,-0.0212 14.02292,-0.0202 1.1839,-0.33693 1.18443,-0.3359 1.5937,-0.80098 1.59525,-0.80099 1.52807,-1.06815 1.52756,-1.06763 1.04541,-1.56425 1.04387,-1.56373 0.33073,-0.97203 0.33021,-0.97307 0.0879,-25.4 0.0873,-25.4 -0.44235,-1.66088 -0.44287,-1.6614 -0.97978,-1.51567 -0.97927,-1.51619 -1.27176,-1.11982 -1.27227,-1.11932 -1.41697,-0.69298 -1.41593,-0.69298 -2.18798,-0.2558 -2.18695,-0.25631 -8.46718,0.0863 -8.46564,0.0858 -0.13332,-37.17396 -0.13178,-37.173444 -0.48627,-1.322917 -0.48679,-1.322917 -0.80512,-1.44694 -0.80512,-1.44694 -1.38906,-1.740979 -1.38958,-1.740979 -1.55236,-1.317749 -1.55288,-1.317233 -1.05782,-0.7059 -1.05833,-0.705383 -1.99368,-0.942578 -1.99419,-0.943095 -1.90583,-0.397909 z m -152.273399,0.522449 76.994269,0.07235 76.99272,0.07286 1.97508,0.731221 1.97507,0.731222 1.79214,1.064018 1.7911,1.064534 1.69396,1.437122 1.69395,1.437122 1.32188,1.662431 1.32189,1.661914 0.94413,1.719791 0.94516,1.719792 0.40462,1.719792 0.40515,1.719792 0.004,36.160073 0.004,36.16006 0.16072,0.4191 0.16123,0.41755 h 9.3276 9.32811 l 1.40611,0.26716 1.40612,0.26717 1.4087,0.64492 1.40922,0.64492 1.41076,1.33429 1.41129,1.3348 0.71313,1.30897 0.71262,1.30999 0.38602,1.27279 0.38603,1.27331 0.003,24.65896 0.003,24.65896 -0.29818,1.40199 -0.29714,1.40301 -0.61184,1.21388 -0.61185,1.21491 -1.42627,1.30432 -1.42576,1.30379 -1.70015,0.92088 -1.69912,0.92139 -1.32292,0.524 -1.32292,0.524 -14.26889,0.0667 -14.26993,0.0682 -0.21188,0.33383 -0.21239,0.33538 -0.008,0.79272 -0.008,0.79427 -1.18597,2.62154 -1.18598,2.62206 -1.4981,2.00815 -1.49758,2.00918 -3.06596,3.13159 -3.067,3.13211 -2.11718,1.52911 -2.11718,1.5291 -2.51303,1.43712 -2.51406,1.43661 -1.57303,0.73639 -1.572,0.73587 -2.66082,1.13481 -2.65978,1.13534 -2.51406,0.93896 -2.51303,0.93896 -3.21685,0.82475 -3.21634,0.82528 -2.86908,0.4408 -2.86959,0.44028 -37.70313,0.0429 -37.703643,0.0429 -0.793751,-0.0951 -0.79375,-0.0961 -1.984375,-0.2837 -1.984375,-0.28319 -3.285587,-0.79685 -3.286105,-0.79634 -2.444812,-0.8847 -2.444812,-0.88521 -1.942001,-0.84388 -1.942517,-0.84491 -2.645833,-1.24902 -2.645834,-1.24902 -2.825151,-1.73323 -2.825667,-1.73271 -2.486153,-1.87689 -2.48667,-1.8774 -2.631364,-2.71663 -2.631364,-2.71715 -0.955498,-1.45624 -0.955497,-1.45469 -1.458309,-2.64583 -1.457792,-2.64532 -0.756026,-1.45573 -0.75551,-1.4552 -13.585218,-0.0362 -13.5852179,-0.0367 -1.0547161,-0.16795 -1.055233,-0.16898 -1.23455,-0.63304 -1.235067,-0.63303 -1.761649,-1.46296 -1.76165,-1.46296 -0.696082,-0.91209 -0.696081,-0.91312 -0.584977,-1.54875 -0.584978,-1.54926 v -25.92916 -25.92865 l 0.819589,-1.72031 0.819588,-1.71979 1.252637,-1.38597 1.252636,-1.38596 1.764234,-0.863 1.764233,-0.86299 10.71562603,-0.13229 10.71562597,-0.13178 0.132291,-37.17396 0.132292,-37.174477 0.488342,-1.322916 0.488343,-1.322917 0.793233,-1.5875 0.793233,-1.5875 0.691948,-0.926042 0.69143,-0.926042 1.466577,-1.55546 1.466061,-1.555978 1.80144,-1.270207 1.801441,-1.270206 1.902726,-0.791683 1.902727,-0.791167 2.116666,-0.423746 z m -1.198376,6.359819 -1.627291,0.548287 -1.627291,0.548287 -1.159103,0.797367 -1.158585,0.797368 -0.905888,0.905371 -0.905888,0.905888 -1.112594,1.473812 -1.112593,1.473812 -0.676445,2.295467 -0.675928,2.295467 -0.077,38.959899 -0.077,38.9599 -13.0245291,0.006 -13.0250455,0.006 -1.0790044,0.48989 -1.07952,0.48989 -0.574125,0.73019 -0.574642,0.73071 v 25.41292 25.41343 l 0.538468,1.11156 0.538468,1.11312 1.09244,0.75705 1.0924402,0.75706 22.5123218,0.13695 22.511806,0.13591 89.694263,0.0532 89.69376,0.0537 1.91306,-0.24805 1.91306,-0.24856 1.048,-0.53537 1.048,-0.53382 0.7431,-0.9741 0.74259,-0.9741 V 173.71866 148.2985 l -0.45682,-0.83509 -0.45578,-0.83406 -0.99942,-0.62063 -0.99788,-0.62115 -13.16302,-0.0801 -13.16302,-0.0791 -0.003,-39.07875 -0.003,-39.078752 -0.36329,-1.362191 -0.36277,-1.362708 -0.75912,-1.41025 -0.75811,-1.41025 -1.82676,-1.931148 -1.82624,-1.930632 -2.25465,-1.117244 -2.25412,-1.117245 -77.48107,-0.06718 z m 0.40566,0.437183 76.728655,0.0677 76.72917,0.0677 0.66197,0.155546 0.66095,0.155029 1.69188,0.756543 1.69241,0.756543 2.07377,2.074292 2.07481,2.074809 0.99632,2.086695 0.99581,2.086694 0.13332,39.819281 0.13178,39.82031 13.22916,0.13177 13.22865,0.13333 0.89607,0.52865 0.89607,0.52917 0.49713,0.92604 0.49713,0.92604 -0.0703,25.00261 -0.0698,25.00312 -0.49816,0.73536 -0.49816,0.73381 -0.74982,0.53485 -0.75086,0.53433 -1.79421,0.37982 -1.79369,0.38086 -98.16145,-0.0558 -98.159906,-0.0563 -14.3071375,-0.13798 -14.3071378,-0.13797 -0.9585977,-0.65681 -0.958598,-0.65681 -0.561723,-0.99994 -0.56224,-1.00045 0.0036,-23.87503 0.0036,-23.87555 0.01499,-1.36942 0.0155,-1.36788 0.654224,-0.77773 0.65474,-0.77825 1.1317143,-0.31677 1.1317139,-0.31626 12.8317756,-0.0512 12.8322922,-0.0496 0.141077,-39.15834 0.141593,-39.158334 0.56224,-1.928565 0.562756,-1.928048 0.455786,-0.717785 0.45527,-0.717269 1.05885,-1.393197 1.05885,-1.393197 1.572514,-1.182356 1.572514,-1.18184 1.765267,-0.58136 z m 31.145387,6.445085 -0.160714,0.418579 -0.160713,0.418579 v 4.579049 4.579565 l 0.46302,0.571542 0.463021,0.571541 1.058334,0.244946 1.058333,0.245463 3.679879,0.0062 3.679362,0.0062 -0.171566,4.539258 -0.171049,4.539775 -0.07803,0.07803 -0.07803,0.07751 -4.753199,0.303857 -4.753198,0.303858 -0.132292,0.12764 -0.132292,0.128158 -0.0708,28.781187 -0.0708,28.78171 0.378788,0.31419 0.378788,0.3142 1.676384,0.23771 1.676384,0.23719 5.027083,-0.12506 5.027084,-0.12505 1.842781,-0.2651 1.843299,-0.26459 0.548287,-0.35915 0.54777,-0.36018 0.712101,-3.13883 0.711585,-3.13986 2.636015,-12.45609 2.635498,-12.45608 0.818038,-3.55121 0.817521,-3.55069 0.788066,-3.043221 0.788065,-3.042709 0.807703,-2.016931 0.807703,-2.016931 1.547709,-1.819527 1.547709,-1.819528 1.280542,-0.961698 1.280025,-0.961699 1.681552,-0.842326 1.682068,-0.842325 1.998854,-0.51108 1.99781,-0.51108 h 2.29701 2.29702 l 1.99575,0.510563 1.99626,0.510563 1.81901,0.916223 1.81901,0.915707 1.31981,1.089339 1.32137,1.089856 1.37253,1.620573 1.37407,1.620573 0.80719,2.014864 0.80718,2.014864 0.78859,3.042709 0.7891,3.043221 0.8139,3.57188 0.81442,3.57084 2.08566,9.7901 2.08514,9.7901 1.09296,5.26996 1.09192,5.26997 0.39791,0.76998 0.39843,0.76997 0.971,0.40618 0.971,0.40463 7.99073,-0.10077 7.99124,-0.1018 0.21497,-0.21498 0.21498,-0.21445 0.0227,-28.80497 0.0233,-28.804957 -0.16123,-0.260966 -0.16071,-0.260449 -4.73615,-0.282154 -4.73614,-0.282153 -0.0822,-0.08217 -0.0816,-0.08217 -0.17932,-4.54701 -0.1788,-4.547009 3.67988,-0.0062 3.67936,-0.0062 1.05885,-0.245463 1.05782,-0.244946 0.46302,-0.571541 0.46302,-0.571542 V 67.5933 63.014251 l -0.16071,-0.418579 -0.1602,-0.418579 h -45.45201 z m 0.207739,0.529166 h 45.243749 45.24376 v 4.579566 4.579566 l -0.33797,0.461987 -0.33796,0.461987 -1.05058,0.243913 -1.0511,0.243913 -3.81217,0.0062 -3.81321,0.0062 0.17725,5.073592 0.17622,5.073593 0.0925,0.0925 0.093,0.0925 3.54345,0.136942 3.54294,0.136426 1.38906,0.140043 1.38855,0.14056 v 28.648383 28.6489 l -2.42156,0.17208 -2.42208,0.17209 h -5.47615 -5.47615 l -0.84181,-0.29404 -0.84077,-0.29301 -0.37207,-0.72037 -0.37311,-0.71985 -1.09192,-5.271 -1.09296,-5.26996 -2.09134,-9.83919 -2.09083,-9.83868 -1.36219,-5.77122 -1.36064,-5.771748 -0.786,-2.248958 -0.786,-2.248959 -0.64027,-1.107943 -0.63976,-1.107426 -2.05103,-2.070674 -2.05104,-2.070158 -2.17093,-1.129647 -2.17093,-1.129647 -2.03605,-0.520899 -2.03708,-0.520898 h -2.56109 -2.56108 l -1.99884,0.51108 -1.998333,0.51108 -1.682068,0.840775 -1.681551,0.841293 -1.387512,1.0604 -1.388029,1.059884 -1.590601,1.876371 -1.591117,1.875855 -0.821139,2.127519 -0.821138,2.128035 -0.886768,3.439585 -0.887284,3.43907 -1.317233,5.95416 -1.317232,5.95312 -2.266528,10.7146 -2.266529,10.71614 -0.467155,1.98386 -0.466638,1.98541 -0.979785,0.32194 -0.980302,0.32194 -3.776514,0.26975 -3.775997,0.27131 -2.248959,-0.0341 -2.248958,-0.0331 -1.606621,-0.18397 -1.607137,-0.18397 -0.311092,-0.19224 -0.311609,-0.19275 V 112.7182 84.179368 l 1.653646,-0.143143 1.653646,-0.143144 3.295923,-0.152962 3.295406,-0.152963 0.08268,-0.08216 0.08217,-0.08217 0.169499,-5.066874 0.169499,-5.066358 -3.812171,-0.0062 -3.812171,-0.0062 -1.051098,-0.243913 -1.051616,-0.243913 -0.337447,-0.461987 -0.337964,-0.461987 v -4.579566 z m 114.256599,13.626043 -0.008,21.739242 -0.008,21.739246 0.17725,0.28732 0.1788,0.2868 h 3.55689 3.55844 l -0.0682,-22.026045 -0.0672,-22.026563 h -3.65973 z m -141.640975,0.334863 -1.718758,0.05581 -1.719275,0.05581 -0.198955,0.12299 -0.199471,0.12299 V 98.528881 120.033 l 0.176217,0.17621 0.176733,0.1757 h 3.659726 3.660241 V 98.557303 76.729177 l -1.918229,-0.03101 z m 141.948965,0.06201 h 3.30729 3.30678 v 21.563542 21.563033 h -3.14606 -3.1471 l -0.16071,-0.41755 -0.1602,-0.4191 V 97.87414 Z m -141.948965,0.344681 1.653646,0.128675 1.653646,0.128157 v 21.234364 21.234878 l -0.418579,0.1602 -0.41858,0.16072 -1.367358,-0.0496 -1.367358,-0.0501 -1.521355,-0.0961 -1.521354,-0.0951 V 98.575906 77.321905 l 1.653646,-0.124023 z m 68.728105,26.643334 -0.13591,1.20303 -0.13487,1.20355 -0.15141,0.15037 -0.14987,0.1509 -1.210257,0.13591 -1.210779,0.13591 0.07338,3.86798 0.07286,3.86695 1.256771,0.0811 1.257295,0.0811 v 1.52807 1.52911 l 0.18293,0.18293 0.1819,0.18397 4.11706,-0.0734 4.11707,-0.0718 0.23461,-1.65416 0.23512,-1.65365 h 1.28623 1.28571 v -3.96823 -3.96875 l -0.72709,-0.004 -0.7276,-0.004 -0.59531,-0.15968 -0.59583,-0.15916 v -0.97514 -0.9741 l -0.31678,-0.31781 -0.31833,-0.31678 h -4.01267 z m 0.48886,0.48783 3.53725,0.0868 3.53571,0.0863 0.20205,0.20308 0.20309,0.20361 0.14883,1.11931 0.15038,1.11983 1.18959,0.13177 1.19114,0.13333 v 3.30678 3.30729 l -1.32292,0.13177 -1.32291,0.13333 -0.1323,1.58698 -0.1328,1.58802 h -3.175 -3.175 l -0.5948,-0.0853 -0.59531,-0.0837 v -1.55547 -1.55494 l -1.256774,-0.0801 -1.256771,-0.0806 -0.077,-2.77813 -0.07751,-2.77812 0.144694,-0.58085 0.144694,-0.58084 1.255738,-0.0801 1.255219,-0.0811 0.0806,-1.40922 z m 73.66011,45.53572 -0.33176,0.45424 -0.33228,0.45424 v 8.66303 8.66252 l -0.50592,0.16124 -0.50694,0.16019 -0.65888,-0.16536 -0.65939,-0.16485 -0.11782,-0.4532 -0.11782,-0.45165 -0.0563,-2.36937 -0.0548,-2.36988 -0.1819,-0.1819 -0.1819,-0.1819 -1.19114,-0.0822 -1.19114,-0.0827 0.047,-0.66249 0.047,-0.66094 0.19275,-2.8727 0.19327,-2.87321 -2.35593,0.0951 -2.35696,0.0951 -0.0191,-2.13527 -0.0202,-2.13475 -0.17002,-0.44494 -0.17105,-0.44493 h -4.63899 -4.63796 l -0.0388,5.75469 -0.0393,5.7552 0.0424,17.4377 0.0408,17.43925 0.29507,0.35501 0.29404,0.35399 h 4.31705 4.31756 l 0.18811,-0.30386 0.18707,-0.30334 -0.0331,-10.21385 -0.0336,-10.21281 0.14366,-0.46302 0.14418,-0.46302 h 1.30483 1.30483 v 3.67109 3.67161 l 0.35605,0.29611 0.35605,0.29507 0.90124,0.15089 0.90072,0.15193 0.58498,0.11731 0.58601,0.11679 0.076,2.44533 0.0765,2.44481 1.58699,0.13177 1.58801,0.13333 0.0196,3.85609 0.0202,3.85662 0.17209,0.44906 0.17311,0.44907 4.70152,-0.0718 4.70204,-0.0734 v -23.54792 -23.54688 l -4.62866,-0.0729 z m -49.34686,0.007 v 2.10891 2.10995 l -2.31511,0.076 -2.3151,0.077 v 19.18229 19.18177 l 2.24896,0.13333 2.24896,0.13177 0.004,1.85209 0.004,1.85208 0.20981,0.33073 0.21032,0.33125 h 9.36067 9.36222 l 0.18604,-0.30128 0.185,-0.30075 0.12971,-1.8061 0.12919,-1.80609 2.27996,-0.076 2.27997,-0.076 0.1633,-8.33385 0.16278,-8.3349 0.0362,-10.79004 0.0346,-10.79004 -0.39274,-0.15089 -0.39222,-0.15038 -1.92288,-0.17208 -1.92185,-0.17157 -0.13229,-1.98437 -0.13281,-1.98386 -9.85521,-0.0698 z m -131.7625087,0.001 -0.018603,5.35988 -0.018087,5.36092 0.0031,17.79426 0.00362,17.79375 0.1669149,0.27026 0.1663981,0.26976 4.5449425,-0.0718 4.5444257,-0.0729 0.069763,-9.06198 0.069246,-9.06198 H 8.7188564 13.99192 l 0.130224,-0.21135 0.130742,-0.21084 0.06149,-4.28708 0.0615,-4.28708 -0.198438,-0.19792 -0.197921,-0.19792 -5.2038166,-0.13281 -5.203817,-0.13229 -0.072347,-4.55993 -0.072347,-4.55889 6.6869306,-0.0713 6.686931,-0.0698 v -4.76302 -4.76198 l -11.44323,-0.0693 z m 117.5463187,0 -11.743469,0.0687 -11.74347,0.0682 -0.03876,23.15207 -0.03824,23.15104 0.123507,0.20413 0.124023,0.2036 4.941818,-0.0718 4.941817,-0.0718 0.06976,-8.6651 0.06976,-8.66511 6.148464,-0.031 6.14691,-0.032 0.79375,-0.16795 0.79427,-0.16898 0.13177,-1.85002 0.13333,-1.85105 2.24895,-0.13177 2.24793,-0.13333 0.0698,-9.78855 0.0703,-9.7901 -0.45113,-0.33125 -0.45114,-0.32969 h -1.93373 -1.93425 v -2.08515 -2.08411 l -0.3607,-0.29972 z m -56.295274,0.13695 -0.06821,23.01926 -0.06821,23.01875 0.128158,0.33693 0.128674,0.3359 4.834331,-0.0718 4.834847,-0.0718 0.132292,-8.46615 0.132291,-8.46718 h 2.645834 2.645833 l 0.132292,1.72031 0.132292,1.71875 1.516703,0.0801 1.516703,0.0791 0.0708,6.66781 0.0708,6.66729 4.742863,0.0729 4.742863,0.0718 0.193787,-0.20464 0.194303,-0.20413 0.08992,-8.59895 0.09043,-8.59896 -2.145089,-0.1602 -2.145605,-0.1602 -0.301791,-0.18552 -0.302307,-0.18706 0.0036,-1.37408 0.0036,-1.37304 0.157096,-0.58498 0.15658,-0.58601 2.287199,-0.076 2.286682,-0.076 0.04961,-5.68803 0.05013,-5.68905 -0.182417,-4.36615 -0.181901,-4.3651 -2.304253,-0.076 -2.304252,-0.077 -0.077,-2.03967 -0.077,-2.04121 h -11.90625 z m -56.9381295,0.1328 h 7.0641687 7.0641688 l 2.024166,0.17105 2.024166,0.17105 v 4.32222 4.3217 l -6.6807298,0.0713 -6.6807295,0.0708 -0.072347,4.72788 -0.072347,4.72839 0.3033407,0.36484 0.3028239,0.36483 H 8.3162969 13.12789 l 0.455269,0.33331 0.45527,0.3328 -0.0739,3.83388 -0.0739,3.83542 -5.4239586,0.13178 -5.4239587,0.13177 -0.069763,9.06198 -0.069246,9.06198 h -4.1857912 -4.1857912 l -0.1767334,-0.1757 -0.1762167,-0.17725 v -22.67097 -22.67097 l 2.024166,-0.17105 z m 27.5693785,0.1323 -0.077,2.18281 -0.07648,2.18333 H 23.530873 21.41834 l -0.265617,0.69763 -0.265617,0.69918 0.02429,20.17603 0.0248,20.17707 0.159164,0.15864 0.15968,0.15917 h 4.982642 4.983158 v -7.14272 -7.14427 h 2.075843 2.076359 l 2.421557,-0.17208 2.422075,-0.17208 v 7.17837 7.17889 l 0.595313,0.14573 0.595312,0.14728 4.233334,-0.0749 4.233333,-0.076 V 175.55079 154.6487 l -2.220019,-0.078 -2.22002,-0.077 0.150378,-1.98902 0.150379,-1.988 -0.498678,-0.18293 -0.498677,-0.18293 h -9.470224 z m 67.20417,0 9.259905,0.13177 9.26093,0.13333 0.13229,2.24895 0.13178,2.24896 2.11615,0.078 2.11615,0.078 0.185,0.18706 0.18552,0.18604 0.0362,4.49792 0.0372,4.49791 -0.0233,4.95991 -0.0217,4.96093 h -1.96319 -1.96319 l -0.41806,0.16124 -0.41858,0.16071 v 1.82314 1.82418 l -0.0661,0.0548 -0.0661,0.0553 -6.87865,0.14366 -6.879685,0.14315 -0.06976,8.6651 -0.06976,8.66459 h -4.626592 -4.626591 v -22.87561 -22.87612 l 2.315104,-0.077 z m 36.513015,0.077 5.29115,0.0202 5.29167,0.0207 2.40916,0.007 2.41018,0.007 0.17467,1.88516 0.17518,1.88515 0.14315,0.23203 0.14262,0.23099 1.50637,0.004 1.50585,0.004 0.5948,0.15916 0.59531,0.15968 v 12.20649 l -0.001,12.20597 -0.17415,6.53862 -0.17415,6.53914 -2.27273,0.076 -2.27325,0.0749 -0.0677,1.45625 -0.0693,1.45469 -0.13487,0.59531 -0.13488,0.59376 h -9.13123 -9.1307 l -0.11834,-0.33073 -0.11886,-0.33124 -0.0718,-1.85209 -0.0724,-1.85156 -2.18178,-0.0775 -2.18333,-0.076 V 173.30003 154.5358 l 2.31511,-0.077 2.3151,-0.076 0.077,-2.05104 0.078,-2.05 1.64176,-0.0269 z m 26.13278,0.0429 4.2323,0.0718 4.23281,0.0734 -0.0191,2.127 -0.0186,2.127 0.23358,0.37775 0.23306,0.37828 2.13217,-0.0811 2.13113,-0.0801 -0.016,1.27899 -0.016,1.28002 -0.20929,1.98386 -0.20877,1.98541 0.24598,0.31678 0.24598,0.31677 1.2361,0.0801 1.2361,0.0791 0.0749,2.98896 0.0749,2.98897 1.64383,-0.078 1.64486,-0.0791 0.13333,-8.99583 0.13177,-8.9948 4.43229,-0.0734 4.43074,-0.0718 v 23.15725 23.15673 l -1.52084,0.046 -1.52084,0.045 -2.38228,0.0522 -2.38073,0.0522 -0.52917,-0.19017 -0.52917,-0.18913 -0.13177,-4.20698 -0.13333,-4.20698 -1.52084,-0.0801 -1.52083,-0.0791 -0.004,-2.1699 -0.004,-2.16886 -0.20877,-0.32814 -0.20826,-0.32815 -1.43195,-0.27078 -1.43196,-0.27182 -0.19999,-0.19999 -0.19998,-0.19999 -0.0739,-3.69796 -0.0739,-3.699 -1.78335,-0.078 -1.78284,-0.0791 -0.0687,10.92595 -0.0692,10.92698 -4.08089,0.0729 -4.07986,0.0729 -0.22737,-0.22686 -0.22686,-0.22686 -0.13591,-13.20694 -0.13591,-13.20798 0.17983,-9.59838 z m -100.084339,0.0119 h 11.509376 11.509375 v 1.69809 1.69912 l 0.160714,0.41806 0.160714,0.4191 h 2.187463 2.187464 l 0.165364,0.82579 0.165365,0.82682 v 8.83099 8.82995 H 81.37489 79.141952 l -0.168982,0.27337 -0.168466,0.27285 -0.04547,2.21795 -0.04547,2.21692 0.148828,0.15038 0.149345,0.14986 2.298051,0.17673 2.298568,0.17725 v 7.87601 7.87704 l -0.160714,0.41909 -0.160714,0.41755 h -4.464844 -4.464843 l -0.0708,-6.6797 -0.0708,-6.68124 -1.496033,-0.0791 -1.495516,-0.0775 -0.161747,-0.64544 -0.161747,-0.64389 0.163814,-1.02474 0.163814,-1.02423 -0.754992,-0.13384 -0.75551,-0.13488 -2.447396,-0.0543 -2.447396,-0.0548 -0.04548,0.34881 -0.04496,0.34882 -0.04961,0.52916 -0.04961,0.52917 -0.03772,7.73906 -0.03721,7.73855 h -4.497917 -4.497917 v -22.88594 z m 158.353649,0.13333 -4.10104,0.0119 -4.10208,0.0119 -6.15104,0.0543 -6.15208,0.0537 -0.004,1.78594 -0.004,1.78594 -0.21239,0.33538 -0.21291,0.33589 -2.16576,0.16692 -2.16731,0.16691 0.0682,18.54719 0.0682,18.54771 1.91771,0.078 1.91926,0.077 v 2.19418 2.19315 l 0.1788,0.1788 0.17984,0.17983 10.47016,-0.0687 10.47016,-0.0703 0.077,-2.15284 0.076,-2.15284 1.77612,-0.22789 1.77457,-0.22841 0.0703,-10.88306 0.0687,-10.88151 -0.59893,-0.10438 -0.5979,-0.10284 -5.77174,0.0372 -5.77329,0.0367 -0.25373,0.25425 -0.25528,0.25476 0.0739,3.68298 0.0739,3.68298 1.50327,0.0791 1.50275,0.0791 0.13436,0.7152 0.13384,0.71365 0.004,3.04323 0.004,3.04271 -0.14211,0.73432 -0.14314,0.7338 -4.40904,-0.0729 -4.41006,-0.0718 -0.0677,-13.825 -0.0692,-13.82448 h 4.62298 4.62297 l 0.076,2.4474 0.076,2.44791 h 4.76198 4.76302 v -4.63021 -4.63072 l -1.7756,-0.078 -1.77612,-0.078 -0.076,-2.30322 z m -187.701213,0.13074 8.919353,0.004 8.918836,0.004 0.610298,0.16381 0.610816,0.16278 -0.08165,2.01641 -0.08113,2.0159 2.182813,0.076 2.182812,0.077 v 20.49488 20.49384 H 45.11147 40.745845 v -7.12773 -7.12825 l -0.198438,-0.11679 -0.198437,-0.11679 -4.762501,0.16692 -4.7625,0.16795 -0.07028,7.07812 -0.0708,7.07657 h -4.627625 -4.627108 l 0.0677,-20.43855 0.0677,-20.44009 2.248958,-0.1323 2.248959,-0.13177 0.077,-2.18281 z m 167.748943,0.26613 h 9.76736 9.76685 l 0.077,2.3151 0.076,2.31511 1.78594,0.0775 1.78594,0.078 v 4.22144 4.22197 h -4.35581 -4.35529 l -0.076,-2.44843 -0.077,-2.44688 h -5.02709 -5.02656 v 14.28698 14.28802 h 4.89479 4.89479 v -4.89479 -4.89531 l -1.52859,-0.0786 -1.5291,-0.0801 0.0739,-3.49229 0.0729,-3.49178 h 5.95312 5.95416 v 10.58282 10.58333 l -1.72031,0.13281 -1.71979,0.13178 -0.077,2.18333 -0.077,2.18178 -0.98082,0.0119 -0.98134,0.0124 -8.46667,0.0538 -8.46718,0.0553 -0.71727,-0.0832 -0.71778,-0.0832 -0.076,-2.29805 -0.076,-2.29857 -1.91823,-0.077 -1.91875,-0.078 v -18.07641 -18.0759 l 2.18281,-0.23513 2.18333,-0.23461 0.0656,-1.32292 0.0672,-1.32343 0.14418,-0.85886 z m -158.428581,7.93698 -2.434477,0.17312 -2.434994,0.17312 0.07906,6.45077 0.07906,6.4518 0.392224,0.24236 0.392741,0.24185 4.502051,-0.0532 4.502568,-0.0537 0.0708,-6.59598 0.0708,-6.59598 -0.33538,-0.21291 -0.33538,-0.21342 -2.27428,-0.004 z m 95.168871,0.2651 v 13.97796 13.979 l 0.17674,0.17673 0.17621,0.17622 h 4.70307 4.70256 l 0.17725,-0.28784 0.17777,-0.28732 -0.19586,-13.86789 -0.19585,-13.86686 h -4.8612 z m -66.013543,0.13178 -0.05529,3.04322 -0.05581,3.04168 0.146761,2.02003 0.146245,2.02003 4.671549,-0.0346 4.67155,-0.0362 v -5.02709 -5.02708 h -4.7625 z m 33.072918,0 v 4.89531 4.89376 l 2.513545,0.15296 2.51406,0.15193 2.38073,-0.0196 2.38125,-0.0202 v -5.02709 -5.02708 h -4.89531 z m -66.41042,0.26407 h 4.365625 4.365625 l 0.0708,6.28385 0.0708,6.28437 H 35.847434 31.46889 l -0.129191,-0.33693 -0.129191,-0.33641 0.07131,-5.94693 z m 108.703965,0 0.10594,13.69322 0.10697,13.69167 h -4.51807 -4.51911 v -13.62604 -13.62605 l 3.83698,-0.0475 3.83594,-0.047 0.57516,-0.0191 z m -66.238338,0.11989 v 4.62194 4.62245 l -4.241602,0.014 -4.242118,0.015 -0.130742,-0.34106 -0.130741,-0.3421 0.07286,-4.22197 0.07338,-4.22299 4.29948,-0.0729 z m 24.341668,0.0129 h 4.4974 4.49792 v 4.63021 4.63021 h -4.32067 -4.3217 l -0.176733,-0.17622 -0.176217,-0.17673 v -4.45347 z m -71.437504,49.20837 v 0.73588 0.73587 l 1.182874,2.07636 1.18339,2.07584 1.081588,1.40198 1.081071,1.40198 2.211235,2.12287 2.211234,2.12183 2.150257,1.59526 2.150773,1.59421 2.700094,1.51774 2.70061,1.51722 2.621029,1.15497 2.621546,1.15497 2.481502,0.92914 2.482019,0.92966 2.581755,0.73794 2.582271,0.73794 2.501657,0.42736 2.501139,0.42685 0.661458,0.10387 0.661459,0.10439 37.834903,-0.0362 37.83645,-0.0372 3.57188,-0.71572 3.57084,-0.71727 2.84427,-0.80099 2.84375,-0.80098 2.44792,-0.95395 2.44791,-0.95498 3.70417,-1.80506 3.70416,-1.80609 2.91094,-1.90789 2.9099,-1.9079 2.78019,-2.80706 2.77967,-2.8081 1.13223,-2.24896 1.13172,-2.24895 0.15916,-1.38183 0.15916,-1.38131 -26.42836,-0.0791 -26.42888,-0.0796 -51.130212,-0.062 z m 0.529167,0.51677 76.839757,0.0739 76.83924,0.0754 0.19482,0.19379 0.19431,0.19482 -0.46819,1.73116 -0.46922,1.73116 -0.97876,1.5136 -0.97926,1.51412 -1.5689,1.69499 -1.56993,1.69395 -1.74511,1.3932 -1.7446,1.3932 -2.09135,1.36477 -2.09082,1.36478 -3.96927,1.9451 -3.96875,1.9451 -2.54403,0.93482 -2.54403,0.93638 -3.59203,0.94465 -3.59203,0.94516 -3.52072,0.5178 -3.52226,0.51831 -36.77709,-0.0202 -36.776567,-0.0212 -2.645833,-0.4656 -2.645834,-0.46613 -2.645833,-0.74414 -2.645834,-0.74414 -3.175,-1.17667 -3.175,-1.17616 -3.499011,-1.67173 -3.499012,-1.67121 -2.321822,-1.51412 -2.321822,-1.51309 -1.852084,-1.51877 -1.852083,-1.5198 -1.736328,-1.81695 -1.735812,-1.81746 -1.07952,-1.45469 -1.079004,-1.45521 -0.822689,-1.55908 -0.822689,-1.55804 v -0.36794 z"
         id="path386"
         style="display:inline" /></g><g
       id="layer1-2"
       transform="translate(30.691647,-12.964474)"
       style="display:inline;stroke:#000000;stroke-width:0.0264583;stroke-dasharray:none"><path
         id="path298-6"
         style="display:inline;fill:#6647cc;fill-opacity:1;stroke:#000000;stroke-width:0.0264583;stroke-dasharray:none"
         d="m 193.96389,150.81303 -0.14366,0.8599 -0.14418,0.85886 -0.0672,1.32343 -0.0656,1.32292 -2.18333,0.23461 -2.18281,0.23513 v 18.0759 18.07641 l 1.91875,0.0775 1.91823,0.077 0.076,2.29857 0.076,2.29805 0.71778,0.0832 0.71727,0.0832 8.46718,-0.0553 8.46667,-0.0537 0.98134,-0.0124 0.98082,-0.0119 0.077,-2.18178 0.077,-2.18333 1.71979,-0.13177 1.72031,-0.13281 v -10.58334 -10.58281 h -5.95416 -5.95312 l -0.0729,3.49177 -0.0739,3.4923 1.5291,0.0801 1.52859,0.0785 v 4.89531 4.89479 h -4.89479 -4.89479 v -14.28801 -14.28699 h 5.02656 5.02709 l 0.077,2.44688 0.076,2.44843 h 4.35529 4.35581 v -4.22196 -4.22145 l -1.78594,-0.0775 -1.78594,-0.0775 -0.076,-2.31511 -0.077,-2.3151 h -9.76685 z" /><path
         id="path297-1"
         style="display:inline;fill:#6647cc;fill-opacity:1;stroke:#000000;stroke-width:0.0264583;stroke-dasharray:none"
         d="m 26.214947,150.5469 -0.07648,2.18281 -0.077,2.18281 -2.248959,0.13178 -2.248958,0.13229 -0.0677,20.4401 -0.0677,20.43854 h 4.627108 4.627625 l 0.0708,-7.07657 0.07028,-7.07812 4.7625,-0.16795 4.762501,-0.16691 0.198437,0.11679 0.198438,0.11678 v 7.12825 7.12773 h 4.365625 4.365625 v -20.49384 -20.49487 l -2.182812,-0.077 -2.182813,-0.076 0.08113,-2.0159 0.08165,-2.01642 -0.610816,-0.16278 -0.610298,-0.16381 -8.918836,-0.004 z m 9.320362,8.20311 2.274796,0.004 2.27428,0.004 0.33538,0.21342 0.33538,0.21291 -0.0708,6.59598 -0.0708,6.59598 -4.502568,0.0537 -4.502051,0.0532 -0.392741,-0.24185 -0.392224,-0.24236 -0.07906,-6.4518 -0.07906,-6.45077 2.434994,-0.17312 z" /><path
         id="path295-8"
         style="display:inline;fill:#6647cc;fill-opacity:1;stroke:#000000;stroke-width:0.0264583;stroke-dasharray:none"
         d="m 55.562511,150.28283 v 22.88646 22.88594 h 4.497917 4.497917 l 0.03721,-7.73854 0.03772,-7.73907 0.04961,-0.52916 0.04961,-0.52917 0.04496,-0.34882 0.04548,-0.34881 2.447396,0.0548 2.447396,0.0543 0.75551,0.13539 0.754992,0.13332 -0.163814,1.02475 -0.163814,1.02422 0.161747,0.64389 0.161747,0.64596 1.495516,0.077 1.496033,0.0796 0.0708,6.68124 0.0708,6.6797 h 4.464843 4.464844 l 0.160714,-0.41755 0.160714,-0.41909 v -7.87704 -7.87601 l -2.298568,-0.17725 -2.298051,-0.17673 -0.149345,-0.14986 -0.148828,-0.15038 0.04547,-2.21692 0.04547,-2.21795 0.168466,-0.27285 0.168982,-0.27337 h 2.232938 2.233456 v -8.82995 -8.83099 l -0.165365,-0.82682 -0.165364,-0.82579 H 81.090153 78.90269 l -0.160714,-0.4191 -0.160714,-0.41806 V 151.981 150.28291 H 67.071887 Z m 9.128126,8.86406 h 4.7625 4.7625 v 5.02708 5.02709 l -4.67155,0.0362 -4.671549,0.0346 -0.146245,-2.02003 -0.146761,-2.02003 0.05581,-3.04168 z" /><path
         id="path294-7"
         style="display:inline;fill:#6647cc;fill-opacity:1;stroke:#000000;stroke-width:0.0264583;stroke-dasharray:none"
         d="m 155.64685,150.27094 -0.17932,9.59684 -0.17983,9.59838 0.1359,13.20798 0.13591,13.20694 0.22686,0.22686 0.22738,0.22686 4.07985,-0.0729 4.08089,-0.0729 0.0693,-10.92698 0.0687,-10.92595 1.78283,0.0791 1.78336,0.078 0.0739,3.699 0.0739,3.69796 0.19999,0.19999 0.19999,0.19999 1.43195,0.27182 1.43196,0.27078 0.20825,0.32815 0.20878,0.32814 0.004,2.16886 0.004,2.1699 1.52083,0.0791 1.52084,0.0801 0.13333,4.20698 0.13177,4.20698 0.52917,0.18913 0.52917,0.19017 2.38073,-0.0522 2.38228,-0.0522 1.52084,-0.045 1.52084,-0.046 v -23.15673 -23.15725 l -4.43074,0.0718 -4.43229,0.0734 -0.13177,8.9948 -0.13333,8.99583 -1.64486,0.0791 -1.64383,0.078 -0.0749,-2.98897 -0.0749,-2.98896 -1.2361,-0.0791 -1.2361,-0.0801 -0.24598,-0.31677 -0.24598,-0.31678 0.20877,-1.98541 0.20929,-1.98386 0.016,-1.28002 0.016,-1.27899 -2.13113,0.0801 -2.13217,0.0806 -0.23306,-0.37827 -0.23358,-0.37776 0.0186,-2.127 0.0191,-2.127 -4.23281,-0.0734 z" /><path
         id="path293-9"
         style="display:inline;fill:#6647cc;fill-opacity:1;stroke:#000000;stroke-width:0.0264583;stroke-dasharray:none"
         d="m 129.51407,150.22754 -1.64331,0.0274 -1.64176,0.0269 -0.078,2.05 -0.077,2.05104 -2.3151,0.076 -2.31511,0.077 v 18.76423 18.76475 l 2.18333,0.076 2.18178,0.0775 0.0724,1.85156 0.0718,1.85209 0.11886,0.33124 0.11834,0.33073 h 9.1307 9.13123 l 0.13488,-0.59376 0.13487,-0.59531 0.0693,-1.45469 0.0677,-1.45625 2.27325,-0.0749 2.27273,-0.076 0.17415,-6.53914 0.17415,-6.53862 10e-4,-12.20597 v -12.20649 l -0.59531,-0.15968 -0.5948,-0.15916 -1.50585,-0.004 -1.50637,-0.004 -0.14262,-0.23099 -0.14315,-0.23203 -0.17518,-1.88515 -0.17467,-1.88516 -2.41018,-0.007 -2.40916,-0.007 -5.29167,-0.0207 z m 1.19011,8.78757 h 4.86069 4.8612 l 0.19585,13.86686 0.19586,13.86789 -0.17777,0.28732 -0.17725,0.28784 h -4.70256 -4.70307 l -0.17621,-0.17622 -0.17674,-0.17673 v -13.979 z" /><path
         id="path292-2"
         style="display:inline;fill:#6647cc;fill-opacity:1;stroke:#000000;stroke-width:0.0264583;stroke-dasharray:none"
         d="m 93.001055,150.15054 -2.315105,0.076 -2.315104,0.077 v 22.87613 22.8756 h 4.626591 4.626592 l 0.06976,-8.66459 0.06976,-8.6651 6.879681,-0.14314 6.87865,-0.14366 0.0661,-0.0553 0.0661,-0.0548 v -1.82418 -1.82315 l 0.41858,-0.16071 0.41806,-0.16123 h 1.96319 1.96319 l 0.0217,-4.96094 0.0233,-4.9599 -0.0372,-4.49792 -0.0362,-4.49792 -0.18552,-0.18603 -0.185,-0.18707 -2.11615,-0.078 -2.11615,-0.078 -0.13178,-2.24896 -0.13229,-2.24896 -9.26093,-0.13333 z m 4.7625,8.99635 h 4.894275 4.89531 v 5.02708 5.02709 l -2.38125,0.0202 -2.38073,0.0196 -2.51406,-0.15193 -2.513545,-0.15296 v -4.89376 z" /><path
         id="path290-0"
         style="display:inline;fill:#6647cc;fill-opacity:1;stroke:#000000;stroke-width:0.0264583;stroke-dasharray:none"
         d="m -1.7724935,150.01825 -2.0241659,0.17105 -2.024166,0.17104 v 22.67097 22.67097 l 0.1762167,0.17725 0.1767334,0.1757 h 4.1857912 4.1857912 l 0.069246,-9.06198 0.069763,-9.06198 5.4239587,-0.13177 5.4239582,-0.13178 0.0739,-3.83542 0.0739,-3.83388 -0.45527,-0.33279 -0.455269,-0.33332 H 8.3162969 3.5041873 l -0.3028239,-0.36483 -0.3033407,-0.36484 0.072347,-4.72839 0.072347,-4.72788 6.6807295,-0.0708 6.6807298,-0.0713 v -4.3217 -4.32222 L 14.38001,150.1893 12.355844,150.01825 H 5.2916752 Z" /><path
         id="path369-2"
         style="display:inline;fill:#ffffff;fill-opacity:1;stroke:#000000;stroke-width:0.0264583;stroke-dasharray:none"
         d="m 131.56679,90.752617 h 4.01423 4.01267 l 0.31833,0.31678 0.31678,0.31781 v 0.9741 0.97514 l 0.59583,0.15916 0.59531,0.15968 0.7276,0.004 0.72709,0.004 v 3.96875 3.968233 h -1.28571 -1.28623 l -0.23512,1.65365 -0.23461,1.65416 -4.11707,0.0718 -4.11706,0.0734 -0.1819,-0.18397 -0.18293,-0.18293 v -1.52911 -1.52807 l -1.2573,-0.0811 -1.25677,-0.0811 -0.0729,-3.866953 -0.0734,-3.86798 1.21078,-0.13591 1.21026,-0.13591 0.14987,-0.1509 0.15141,-0.15037 0.13487,-1.20355 z"
         transform="translate(-30.69166,12.96459)" /><path
         id="path281-3"
         style="display:inline;fill:#6647cc;fill-opacity:1;stroke:#000000;stroke-width:0.0264583;stroke-dasharray:none"
         d="m 32.146885,77.073858 -1.653646,0.124024 -1.653646,0.124023 v 21.254001 21.254004 l 1.521354,0.0951 1.521355,0.0961 1.367358,0.0501 1.367358,0.0496 0.41858,-0.16072 0.418579,-0.1602 V 98.565054 77.33069 l -1.653646,-0.128157 z" /><path
         id="path277-7"
         style="display:inline;fill:#6647cc;fill-opacity:1;stroke:#000000;stroke-width:0.0264583;stroke-dasharray:none"
         d="m 173.78786,76.332302 h 3.66024 3.65973 l 0.0672,22.026563 0.0682,22.026045 h -3.55844 -3.55689 l -0.1788,-0.2868 -0.17725,-0.28732 0.008,-21.739246 z" /><path
         id="path276-5"
         style="display:inline;fill:#6647cc;fill-opacity:1;stroke:#000000;stroke-width:0.0264583;stroke-dasharray:none"
         d="m 59.531261,62.706259 v 4.579566 4.579566 l 0.337964,0.461987 0.337447,0.461987 1.051616,0.243913 1.051098,0.243913 3.812171,0.0062 3.812171,0.0062 -0.169499,5.066358 -0.169499,5.066874 -0.08217,0.08217 -0.08268,0.08216 -3.295406,0.152963 -3.295923,0.152962 -1.653646,0.143144 -1.653646,0.143143 v 28.538835 28.53779 l 0.311609,0.19275 0.311092,0.19224 1.607137,0.18397 1.606621,0.18397 2.248958,0.0331 2.248959,0.0341 3.775997,-0.27131 3.776514,-0.26975 0.980302,-0.32194 0.979785,-0.32194 0.466638,-1.98541 0.467155,-1.98386 2.266529,-10.71614 2.266528,-10.7146 1.317232,-5.95312 1.317233,-5.95416 0.887284,-3.43907 0.886768,-3.439584 0.821138,-2.128035 0.821139,-2.127519 1.591117,-1.875855 1.590601,-1.876371 1.388029,-1.059884 1.387512,-1.0604 1.681551,-0.841293 1.682068,-0.840775 1.998335,-0.51108 1.99884,-0.51108 h 2.56108 2.56109 l 2.03708,0.520898 2.03605,0.520899 2.17093,1.129647 2.17093,1.129647 2.05104,2.070158 2.05103,2.070674 0.63976,1.107426 0.64027,1.107943 0.786,2.248959 0.786,2.248958 1.36064,5.771747 1.36219,5.77122 2.09083,9.83868 2.09134,9.83919 1.09296,5.26996 1.09192,5.271 0.37311,0.71985 0.37207,0.72037 0.84077,0.29301 0.84181,0.29404 h 5.47615 5.47615 l 2.42208,-0.17209 2.42156,-0.17208 v -28.6489 -28.648382 l -1.38855,-0.14056 -1.38906,-0.140043 -3.54294,-0.136426 -3.54345,-0.136942 -0.093,-0.0925 -0.0925,-0.0925 -0.17622,-5.073593 -0.17725,-5.073592 3.81321,-0.0062 3.81217,-0.0062 1.0511,-0.243913 1.05058,-0.243913 0.33796,-0.461987 0.33797,-0.461987 V 67.285846 62.70628 h -45.24376 z" /><path
         id="path360-9"
         style="display:inline;fill:#6647cc;fill-opacity:1;stroke:#000000;stroke-width:0.0264583;stroke-dasharray:none"
         d="m 59.662471,35.970383 -2.11718,0.424264 -2.11667,0.423746 -1.90273,0.791167 -1.90272,0.791683 -1.80144,1.270206 -1.80144,1.270207 -1.46606,1.555978 -1.46658,1.55546 -0.69143,0.926042 -0.69195,0.926042 -0.79323,1.5875 -0.79324,1.5875 -0.48834,1.322917 -0.48834,1.322916 -0.13229,37.174477 -0.13229,37.173952 -10.71563,0.13178 -10.71563,0.13229 -1.76423,0.863 -1.76423,0.86299 -1.25264,1.38597 -1.25264,1.38596 -0.81958,1.71979 -0.81959,1.72031 v 25.92865 25.92917 l 0.58497,1.54926 0.58498,1.54874 0.69608,0.91312 0.69609,0.91209 1.76165,1.46296 1.76164,1.46296 1.23507,0.63304 1.23455,0.63303 1.05523,0.16899 1.05472,0.16794 13.58522,0.0367 13.58522,0.0362 0.75551,1.45521 0.75602,1.45572 1.45779,2.64532 1.45831,2.64583 0.9555,1.45469 0.9555,1.45625 2.63136,2.71714 2.63137,2.71663 2.48667,1.87741 2.48615,1.87689 2.82567,1.73271 2.82515,1.73322 2.64583,1.24902 2.64583,1.24902 1.94252,0.84491 1.942,0.84388 2.44481,0.88522 2.44482,0.8847 3.2861,0.79633 3.28559,0.79685 1.98437,0.28319 1.98438,0.2837 0.79375,0.0961 0.79375,0.0951 37.703639,-0.0429 37.70313,-0.0429 2.86959,-0.44028 2.86908,-0.4408 3.21634,-0.82527 3.21686,-0.82476 2.51302,-0.93896 2.51406,-0.93896 2.65979,-1.13533 2.66082,-1.13482 1.57199,-0.73587 1.57303,-0.73639 2.51406,-1.4366 2.51303,-1.43713 2.11718,-1.5291 2.11718,-1.52911 3.067,-3.13211 3.06596,-3.13159 1.49759,-2.00918 1.4981,-2.00814 1.18597,-2.62207 1.18598,-2.62154 0.008,-0.79427 0.008,-0.79272 0.21239,-0.33538 0.21187,-0.33382 14.26993,-0.0682 14.2689,-0.0667 1.32291,-0.524 1.32292,-0.524 1.69912,-0.92139 1.70016,-0.92087 1.42575,-1.3038 1.42627,-1.30431 0.61185,-1.21492 0.61185,-1.21388 0.29714,-1.40301 0.29817,-1.40198 -0.003,-24.65896 -0.003,-24.65896 -0.38654,-1.27331 -0.38602,-1.27279 -0.71262,-1.31 -0.71262,-1.30896 -1.4118,-1.33481 -1.41025,-1.33428 -1.40973,-0.64492 -1.4087,-0.64493 -1.40612,-0.26716 -1.40612,-0.26717 h -9.32759 -9.32812 l -0.16123,-0.41755 -0.16071,-0.41909 -0.004,-36.160067 -0.004,-36.160068 -0.40514,-1.719792 -0.40463,-1.719792 -0.94516,-1.719791 -0.94413,-1.719792 -1.32188,-1.661914 -1.32189,-1.662431 -1.69395,-1.437122 -1.69395,-1.437122 -1.79111,-1.064534 -1.79214,-1.064018 -1.97507,-0.731221 -1.97508,-0.731222 -76.99272,-0.07286 z m -1.19838,6.359819 77.481069,0.06718 77.48106,0.06718 2.25413,1.117244 2.25464,1.117245 h 5.1e-4 l 1.82625,1.930631 1.82676,1.931149 0.7581,1.41025 0.75912,1.41025 0.36277,1.362707 0.36329,1.362191 0.003,39.078754 0.003,39.078747 13.16302,0.0791 13.16302,0.0801 0.99787,0.62116 0.99942,0.62063 0.45579,0.83406 0.45682,0.83509 v 25.42015 25.42068 l -0.74259,0.9741 -0.74311,0.9741 -1.048,0.53381 -1.04799,0.53537 -1.91306,0.24857 -1.91307,0.24804 -89.69375,-0.0537 -89.694269,-0.0532 -22.51181,-0.13591 -22.51232,-0.13694 -1.09244,-0.75706 -1.09244,-0.75706 -0.53847,-1.11311 -0.53847,-1.11156 v -25.41344 -25.41292 l 0.57465,-0.7307 0.57412,-0.73019 1.07952,-0.48989 1.07901,-0.48989 13.02504,-0.006 13.02453,-0.006 0.077,-38.959893 0.077,-38.959898 0.67592,-2.295467 0.67645,-2.295467 1.11259,-1.473812 1.11259,-1.473812 0.90589,-0.905888 0.90589,-0.905371 1.15859,-0.797368 1.1591,-0.797367 1.62729,-0.548287 z m -0.52038,153.973548 76.839759,0.0739 76.83924,0.0755 0.19482,0.19378 0.19431,0.19483 -0.46819,1.73116 -0.46923,1.73116 -0.97875,1.5136 -0.97927,1.51412 -1.56889,1.69499 -1.56993,1.69395 -1.74512,1.3932 -1.74459,1.39319 -2.09135,1.36478 -2.09083,1.36477 -3.96926,1.9451 -3.96875,1.9451 -2.54403,0.93483 -2.54403,0.93638 -3.59203,0.94464 -3.59203,0.94516 -3.52072,0.5178 -3.52226,0.51832 -36.77709,-0.0202 -36.776569,-0.0212 -2.64583,-0.46561 -2.64583,-0.46612 -2.64584,-0.74414 -2.64583,-0.74414 -3.175,-1.17667 -3.175,-1.17616 -3.49901,-1.67173 -3.49901,-1.67122 -2.32183,-1.51412 -2.32182,-1.51308 -1.85208,-1.51877 -1.85209,-1.51981 -1.73632,-1.81694 -1.73582,-1.81746 -1.07952,-1.45469 -1.079,-1.45521 -0.82269,-1.55908 -0.82269,-1.55804 v -0.36794 z"
         transform="translate(-30.69166,12.96459)" /><path
         d="m 181.24425,48.412557 -77.19426,0.0739 -77.194772,0.07441 -1.545125,0.472322 -1.545126,0.47284 -1.497583,0.678511 -1.497583,0.678512 -1.760099,1.162203 -1.7601,1.162203 -2.113049,2.232422 -2.113566,2.232422 -1.339454,2.725415 -1.33997,2.725415 -0.160196,0.926042 -0.160197,0.926042 -0.096635,0.529166 -0.096635,0.529167 -0.020154,36.300631 -0.020154,36.29959 -10.64947973,0.0801 -10.64947927,0.0801 -1.739429,0.85111 -1.738912,0.85111 -1.343071,1.41955 -1.342554,1.42007 -0.663525,1.30897 -0.664042,1.31 -0.305925,1.57923 -0.305924,1.57923 0.08992,25.1349 0.08992,25.13593 0.497127,1.32189 0.497127,1.32291 0.762745,1.12138 0.763261,1.12087 1.892391,1.62884 1.892907,1.62884 1.470195,0.69039 1.470711,0.68989 14.3924042,0.13177 14.3929208,0.13229 1.228349,2.38074 1.228349,2.38228 0.747758,1.32292 0.747758,1.32188 1.16737,1.80609 1.166338,1.80506 2.440678,2.53008 2.440161,2.52956 1.719792,1.37201 1.719791,1.37201 2.420525,1.63917 2.42104,1.63918 3.589962,1.86397 3.590479,1.86397 2.455664,1.06815 2.455664,1.0666 2.087728,0.7643 2.088245,0.76377 2.409672,0.64493 2.410189,0.64595 2.18333,0.43512 2.183329,0.43511 2.182296,0.21084 2.182296,0.21136 35.851567,0.0336 35.85104,0.0331 4.49792,-0.51263 4.49791,-0.51315 2.72697,-0.67489 2.72697,-0.67438 1.37407,-0.4377 1.37408,-0.43821 3.30677,-1.3038 3.3073,-1.30535 3.96875,-1.942 3.96926,-1.942 2.9099,-1.92184 2.91094,-1.92185 3.00705,-2.92695 3.00808,-2.92696 1.65055,-2.11718 1.65003,-2.11615 0.64544,-1.05885 0.64388,-1.05782 0.90486,-1.98437 0.90589,-1.98489 0.14211,-1.19011 0.14211,-1.19063 14.02188,-0.0212 14.02292,-0.0202 1.1839,-0.33693 1.18443,-0.3359 1.5937,-0.80098 1.59525,-0.80099 1.52807,-1.06815 1.52756,-1.06763 1.04541,-1.56425 1.04387,-1.56373 0.33073,-0.97203 0.33021,-0.97307 0.0879,-25.4 0.0873,-25.4 -0.44235,-1.66088 -0.44287,-1.6614 -0.97978,-1.51567 -0.97927,-1.51619 -1.27176,-1.11982 -1.27227,-1.11932 -1.41697,-0.69298 -1.41593,-0.69298 -2.18798,-0.2558 -2.18695,-0.25631 -8.46718,0.0863 -8.46564,0.0858 -0.13332,-37.17396 -0.13178,-37.173444 -0.48627,-1.322917 -0.48679,-1.322917 -0.80512,-1.44694 -0.80512,-1.44694 -1.38906,-1.740979 -1.38958,-1.740979 -1.55236,-1.317749 -1.55288,-1.317233 -1.05782,-0.7059 -1.05833,-0.705383 -1.99368,-0.942578 -1.99419,-0.943095 -1.90583,-0.397909 z m -152.273399,0.522449 76.994269,0.07235 76.99272,0.07286 1.97508,0.731221 1.97507,0.731222 1.79214,1.064018 1.7911,1.064534 1.69396,1.437122 1.69395,1.437122 1.32188,1.662431 1.32189,1.661914 0.94413,1.719791 0.94516,1.719792 0.40462,1.719792 0.40515,1.719792 0.004,36.160073 0.004,36.16006 0.16072,0.4191 0.16123,0.41755 h 9.3276 9.32811 l 1.40611,0.26716 1.40612,0.26717 1.4087,0.64492 1.40922,0.64492 1.41076,1.33429 1.41129,1.3348 0.71313,1.30897 0.71262,1.30999 0.38602,1.27279 0.38603,1.27331 0.003,24.65896 0.003,24.65896 -0.29818,1.40199 -0.29714,1.40301 -0.61184,1.21388 -0.61185,1.21491 -1.42627,1.30432 -1.42576,1.30379 -1.70015,0.92088 -1.69912,0.92139 -1.32292,0.524 -1.32292,0.524 -14.26889,0.0667 -14.26993,0.0682 -0.21188,0.33383 -0.21239,0.33538 -0.008,0.79272 -0.008,0.79427 -1.18597,2.62154 -1.18598,2.62206 -1.4981,2.00815 -1.49758,2.00918 -3.06596,3.13159 -3.067,3.13211 -2.11718,1.52911 -2.11718,1.5291 -2.51303,1.43712 -2.51406,1.43661 -1.57303,0.73639 -1.572,0.73587 -2.66082,1.13481 -2.65978,1.13534 -2.51406,0.93896 -2.51303,0.93896 -3.21685,0.82475 -3.21634,0.82528 -2.86908,0.4408 -2.86959,0.44028 -37.70313,0.0429 -37.703643,0.0429 -0.793751,-0.0951 -0.79375,-0.0961 -1.984375,-0.2837 -1.984375,-0.28319 -3.285587,-0.79685 -3.286105,-0.79634 -2.444812,-0.8847 -2.444812,-0.88521 -1.942001,-0.84388 -1.942517,-0.84491 -2.645833,-1.24902 -2.645834,-1.24902 -2.825151,-1.73323 -2.825667,-1.73271 -2.486153,-1.87689 -2.48667,-1.8774 -2.631364,-2.71663 -2.631364,-2.71715 -0.955498,-1.45624 -0.955497,-1.45469 -1.458309,-2.64583 -1.457792,-2.64532 -0.756026,-1.45573 -0.75551,-1.4552 -13.585218,-0.0362 -13.5852179,-0.0367 -1.0547161,-0.16795 -1.055233,-0.16898 -1.23455,-0.63304 -1.235067,-0.63303 -1.761649,-1.46296 -1.76165,-1.46296 -0.696082,-0.91209 -0.696081,-0.91312 -0.584977,-1.54875 -0.584978,-1.54926 v -25.92916 -25.92865 l 0.819589,-1.72031 0.819588,-1.71979 1.252637,-1.38597 1.252636,-1.38596 1.764234,-0.863 1.764233,-0.86299 10.71562603,-0.13229 10.71562597,-0.13178 0.132291,-37.17396 0.132292,-37.174477 0.488342,-1.322916 0.488343,-1.322917 0.793233,-1.5875 0.793233,-1.5875 0.691948,-0.926042 0.69143,-0.926042 1.466577,-1.55546 1.466061,-1.555978 1.80144,-1.270207 1.801441,-1.270206 1.902726,-0.791683 1.902727,-0.791167 2.116666,-0.423746 z m -1.198376,6.359819 -1.627291,0.548287 -1.627291,0.548287 -1.159103,0.797367 -1.158585,0.797368 -0.905888,0.905371 -0.905888,0.905888 -1.112594,1.473812 -1.112593,1.473812 -0.676445,2.295467 -0.675928,2.295467 -0.077,38.959899 -0.077,38.9599 -13.0245291,0.006 -13.0250455,0.006 -1.0790044,0.48989 -1.07952,0.48989 -0.574125,0.73019 -0.574642,0.73071 v 25.41292 25.41343 l 0.538468,1.11156 0.538468,1.11312 1.09244,0.75705 1.0924402,0.75706 22.5123218,0.13695 22.511806,0.13591 89.694263,0.0532 89.69376,0.0537 1.91306,-0.24805 1.91306,-0.24856 1.048,-0.53537 1.048,-0.53382 0.7431,-0.9741 0.74259,-0.9741 V 173.71866 148.2985 l -0.45682,-0.83509 -0.45578,-0.83406 -0.99942,-0.62063 -0.99788,-0.62115 -13.16302,-0.0801 -13.16302,-0.0791 -0.003,-39.07875 -0.003,-39.078752 -0.36329,-1.362191 -0.36277,-1.362708 -0.75912,-1.41025 -0.75811,-1.41025 -1.82676,-1.931148 -1.82624,-1.930632 -2.25465,-1.117244 -2.25412,-1.117245 -77.48107,-0.06718 z m 0.40566,0.437183 76.728655,0.0677 76.72917,0.0677 0.66197,0.155546 0.66095,0.155029 1.69188,0.756543 1.69241,0.756543 2.07377,2.074292 2.07481,2.074809 0.99632,2.086695 0.99581,2.086694 0.13332,39.819281 0.13178,39.82031 13.22916,0.13177 13.22865,0.13333 0.89607,0.52865 0.89607,0.52917 0.49713,0.92604 0.49713,0.92604 -0.0703,25.00261 -0.0698,25.00312 -0.49816,0.73536 -0.49816,0.73381 -0.74982,0.53485 -0.75086,0.53433 -1.79421,0.37982 -1.79369,0.38086 -98.16145,-0.0558 -98.159906,-0.0563 -14.3071375,-0.13798 -14.3071378,-0.13797 -0.9585977,-0.65681 -0.958598,-0.65681 -0.561723,-0.99994 -0.56224,-1.00045 0.0036,-23.87503 0.0036,-23.87555 0.01499,-1.36942 0.0155,-1.36788 0.654224,-0.77773 0.65474,-0.77825 1.1317143,-0.31677 1.1317139,-0.31626 12.8317756,-0.0512 12.8322922,-0.0496 0.141077,-39.15834 0.141593,-39.158334 0.56224,-1.928565 0.562756,-1.928048 0.455786,-0.717785 0.45527,-0.717269 1.05885,-1.393197 1.05885,-1.393197 1.572514,-1.182356 1.572514,-1.18184 1.765267,-0.58136 z m 31.145387,6.445085 -0.160714,0.418579 -0.160713,0.418579 v 4.579049 4.579565 l 0.46302,0.571542 0.463021,0.571541 1.058334,0.244946 1.058333,0.245463 3.679879,0.0062 3.679362,0.0062 -0.171566,4.539258 -0.171049,4.539775 -0.07803,0.07803 -0.07803,0.07751 -4.753199,0.303857 -4.753198,0.303858 -0.132292,0.12764 -0.132292,0.128158 -0.0708,28.781187 -0.0708,28.78171 0.378788,0.31419 0.378788,0.3142 1.676384,0.23771 1.676384,0.23719 5.027083,-0.12506 5.027084,-0.12505 1.842781,-0.2651 1.843299,-0.26459 0.548287,-0.35915 0.54777,-0.36018 0.712101,-3.13883 0.711585,-3.13986 2.636015,-12.45609 2.635498,-12.45608 0.818038,-3.55121 0.817521,-3.55069 0.788066,-3.043221 0.788065,-3.042709 0.807703,-2.016931 0.807703,-2.016931 1.547709,-1.819527 1.547709,-1.819528 1.280542,-0.961698 1.280025,-0.961699 1.681552,-0.842326 1.682068,-0.842325 1.998854,-0.51108 1.99781,-0.51108 h 2.29701 2.29702 l 1.99575,0.510563 1.99626,0.510563 1.81901,0.916223 1.81901,0.915707 1.31981,1.089339 1.32137,1.089856 1.37253,1.620573 1.37407,1.620573 0.80719,2.014864 0.80718,2.014864 0.78859,3.042709 0.7891,3.043221 0.8139,3.57188 0.81442,3.57084 2.08566,9.7901 2.08514,9.7901 1.09296,5.26996 1.09192,5.26997 0.39791,0.76998 0.39843,0.76997 0.971,0.40618 0.971,0.40463 7.99073,-0.10077 7.99124,-0.1018 0.21497,-0.21498 0.21498,-0.21445 0.0227,-28.80497 0.0233,-28.804957 -0.16123,-0.260966 -0.16071,-0.260449 -4.73615,-0.282154 -4.73614,-0.282153 -0.0822,-0.08217 -0.0816,-0.08217 -0.17932,-4.54701 -0.1788,-4.547009 3.67988,-0.0062 3.67936,-0.0062 1.05885,-0.245463 1.05782,-0.244946 0.46302,-0.571541 0.46302,-0.571542 V 67.5933 63.014251 l -0.16071,-0.418579 -0.1602,-0.418579 h -45.45201 z m 0.207739,0.529166 h 45.243749 45.24376 v 4.579566 4.579566 l -0.33797,0.461987 -0.33796,0.461987 -1.05058,0.243913 -1.0511,0.243913 -3.81217,0.0062 -3.81321,0.0062 0.17725,5.073592 0.17622,5.073593 0.0925,0.0925 0.093,0.0925 3.54345,0.136942 3.54294,0.136426 1.38906,0.140043 1.38855,0.14056 v 28.648383 28.6489 l -2.42156,0.17208 -2.42208,0.17209 h -5.47615 -5.47615 l -0.84181,-0.29404 -0.84077,-0.29301 -0.37207,-0.72037 -0.37311,-0.71985 -1.09192,-5.271 -1.09296,-5.26996 -2.09134,-9.83919 -2.09083,-9.83868 -1.36219,-5.77122 -1.36064,-5.771748 -0.786,-2.248958 -0.786,-2.248959 -0.64027,-1.107943 -0.63976,-1.107426 -2.05103,-2.070674 -2.05104,-2.070158 -2.17093,-1.129647 -2.17093,-1.129647 -2.03605,-0.520899 -2.03708,-0.520898 h -2.56109 -2.56108 l -1.99884,0.51108 -1.998333,0.51108 -1.682068,0.840775 -1.681551,0.841293 -1.387512,1.0604 -1.388029,1.059884 -1.590601,1.876371 -1.591117,1.875855 -0.821139,2.127519 -0.821138,2.128035 -0.886768,3.439585 -0.887284,3.43907 -1.317233,5.95416 -1.317232,5.95312 -2.266528,10.7146 -2.266529,10.71614 -0.467155,1.98386 -0.466638,1.98541 -0.979785,0.32194 -0.980302,0.32194 -3.776514,0.26975 -3.775997,0.27131 -2.248959,-0.0341 -2.248958,-0.0331 -1.606621,-0.18397 -1.607137,-0.18397 -0.311092,-0.19224 -0.311609,-0.19275 V 112.7182 84.179368 l 1.653646,-0.143143 1.653646,-0.143144 3.295923,-0.152962 3.295406,-0.152963 0.08268,-0.08216 0.08217,-0.08217 0.169499,-5.066874 0.169499,-5.066358 -3.812171,-0.0062 -3.812171,-0.0062 -1.051098,-0.243913 -1.051616,-0.243913 -0.337447,-0.461987 -0.337964,-0.461987 v -4.579566 z m 114.256599,13.626043 -0.008,21.739242 -0.008,21.739246 0.17725,0.28732 0.1788,0.2868 h 3.55689 3.55844 l -0.0682,-22.026045 -0.0672,-22.026563 h -3.65973 z m -141.640975,0.334863 -1.718758,0.05581 -1.719275,0.05581 -0.198955,0.12299 -0.199471,0.12299 V 98.528881 120.033 l 0.176217,0.17621 0.176733,0.1757 h 3.659726 3.660241 V 98.557303 76.729177 l -1.918229,-0.03101 z m 141.948965,0.06201 h 3.30729 3.30678 v 21.563542 21.563033 h -3.14606 -3.1471 l -0.16071,-0.41755 -0.1602,-0.4191 V 97.87414 Z m -141.948965,0.344681 1.653646,0.128675 1.653646,0.128157 v 21.234364 21.234878 l -0.418579,0.1602 -0.41858,0.16072 -1.367358,-0.0496 -1.367358,-0.0501 -1.521355,-0.0961 -1.521354,-0.0951 V 98.575906 77.321905 l 1.653646,-0.124023 z m 68.728105,26.643334 -0.13591,1.20303 -0.13487,1.20355 -0.15141,0.15037 -0.14987,0.1509 -1.210257,0.13591 -1.210779,0.13591 0.07338,3.86798 0.07286,3.86695 1.256771,0.0811 1.257295,0.0811 v 1.52807 1.52911 l 0.18293,0.18293 0.1819,0.18397 4.11706,-0.0734 4.11707,-0.0718 0.23461,-1.65416 0.23512,-1.65365 h 1.28623 1.28571 v -3.96823 -3.96875 l -0.72709,-0.004 -0.7276,-0.004 -0.59531,-0.15968 -0.59583,-0.15916 v -0.97514 -0.9741 l -0.31678,-0.31781 -0.31833,-0.31678 h -4.01267 z m 0.48886,0.48783 3.53725,0.0868 3.53571,0.0863 0.20205,0.20308 0.20309,0.20361 0.14883,1.11931 0.15038,1.11983 1.18959,0.13177 1.19114,0.13333 v 3.30678 3.30729 l -1.32292,0.13177 -1.32291,0.13333 -0.1323,1.58698 -0.1328,1.58802 h -3.175 -3.175 l -0.5948,-0.0853 -0.59531,-0.0837 v -1.55547 -1.55494 l -1.256774,-0.0801 -1.256771,-0.0806 -0.077,-2.77813 -0.07751,-2.77812 0.144694,-0.58085 0.144694,-0.58084 1.255738,-0.0801 1.255219,-0.0811 0.0806,-1.40922 z m 73.66011,45.53572 -0.33176,0.45424 -0.33228,0.45424 v 8.66303 8.66252 l -0.50592,0.16124 -0.50694,0.16019 -0.65888,-0.16536 -0.65939,-0.16485 -0.11782,-0.4532 -0.11782,-0.45165 -0.0563,-2.36937 -0.0548,-2.36988 -0.1819,-0.1819 -0.1819,-0.1819 -1.19114,-0.0822 -1.19114,-0.0827 0.047,-0.66249 0.047,-0.66094 0.19275,-2.8727 0.19327,-2.87321 -2.35593,0.0951 -2.35696,0.0951 -0.0191,-2.13527 -0.0202,-2.13475 -0.17002,-0.44494 -0.17105,-0.44493 h -4.63899 -4.63796 l -0.0388,5.75469 -0.0393,5.7552 0.0424,17.4377 0.0408,17.43925 0.29507,0.35501 0.29404,0.35399 h 4.31705 4.31756 l 0.18811,-0.30386 0.18707,-0.30334 -0.0331,-10.21385 -0.0336,-10.21281 0.14366,-0.46302 0.14418,-0.46302 h 1.30483 1.30483 v 3.67109 3.67161 l 0.35605,0.29611 0.35605,0.29507 0.90124,0.15089 0.90072,0.15193 0.58498,0.11731 0.58601,0.11679 0.076,2.44533 0.0765,2.44481 1.58699,0.13177 1.58801,0.13333 0.0196,3.85609 0.0202,3.85662 0.17209,0.44906 0.17311,0.44907 4.70152,-0.0718 4.70204,-0.0734 v -23.54792 -23.54688 l -4.62866,-0.0729 z m -49.34686,0.007 v 2.10891 2.10995 l -2.31511,0.076 -2.3151,0.077 v 19.18229 19.18177 l 2.24896,0.13333 2.24896,0.13177 0.004,1.85209 0.004,1.85208 0.20981,0.33073 0.21032,0.33125 h 9.36067 9.36222 l 0.18604,-0.30128 0.185,-0.30075 0.12971,-1.8061 0.12919,-1.80609 2.27996,-0.076 2.27997,-0.076 0.1633,-8.33385 0.16278,-8.3349 0.0362,-10.79004 0.0346,-10.79004 -0.39274,-0.15089 -0.39222,-0.15038 -1.92288,-0.17208 -1.92185,-0.17157 -0.13229,-1.98437 -0.13281,-1.98386 -9.85521,-0.0698 z m -131.7625087,0.001 -0.018603,5.35988 -0.018087,5.36092 0.0031,17.79426 0.00362,17.79375 0.1669149,0.27026 0.1663981,0.26976 4.5449425,-0.0718 4.5444257,-0.0729 0.069763,-9.06198 0.069246,-9.06198 H 8.7188564 13.99192 l 0.130224,-0.21135 0.130742,-0.21084 0.06149,-4.28708 0.0615,-4.28708 -0.198438,-0.19792 -0.197921,-0.19792 -5.2038166,-0.13281 -5.203817,-0.13229 -0.072347,-4.55993 -0.072347,-4.55889 6.6869306,-0.0713 6.686931,-0.0698 v -4.76302 -4.76198 l -11.44323,-0.0693 z m 117.5463187,0 -11.743469,0.0687 -11.74347,0.0682 -0.03876,23.15207 -0.03824,23.15104 0.123507,0.20413 0.124023,0.2036 4.941818,-0.0718 4.941817,-0.0718 0.06976,-8.6651 0.06976,-8.66511 6.148464,-0.031 6.14691,-0.032 0.79375,-0.16795 0.79427,-0.16898 0.13177,-1.85002 0.13333,-1.85105 2.24895,-0.13177 2.24793,-0.13333 0.0698,-9.78855 0.0703,-9.7901 -0.45113,-0.33125 -0.45114,-0.32969 h -1.93373 -1.93425 v -2.08515 -2.08411 l -0.3607,-0.29972 z m -56.295274,0.13695 -0.06821,23.01926 -0.06821,23.01875 0.128158,0.33693 0.128674,0.3359 4.834331,-0.0718 4.834847,-0.0718 0.132292,-8.46615 0.132291,-8.46718 h 2.645834 2.645833 l 0.132292,1.72031 0.132292,1.71875 1.516703,0.0801 1.516703,0.0791 0.0708,6.66781 0.0708,6.66729 4.742863,0.0729 4.742863,0.0718 0.193787,-0.20464 0.194303,-0.20413 0.08992,-8.59895 0.09043,-8.59896 -2.145089,-0.1602 -2.145605,-0.1602 -0.301791,-0.18552 -0.302307,-0.18706 0.0036,-1.37408 0.0036,-1.37304 0.157096,-0.58498 0.15658,-0.58601 2.287199,-0.076 2.286682,-0.076 0.04961,-5.68803 0.05013,-5.68905 -0.182417,-4.36615 -0.181901,-4.3651 -2.304253,-0.076 -2.304252,-0.077 -0.077,-2.03967 -0.077,-2.04121 h -11.90625 z m -56.9381295,0.1328 h 7.0641687 7.0641688 l 2.024166,0.17105 2.024166,0.17105 v 4.32222 4.3217 l -6.6807298,0.0713 -6.6807295,0.0708 -0.072347,4.72788 -0.072347,4.72839 0.3033407,0.36484 0.3028239,0.36483 H 8.3162969 13.12789 l 0.455269,0.33331 0.45527,0.3328 -0.0739,3.83388 -0.0739,3.83542 -5.4239586,0.13178 -5.4239587,0.13177 -0.069763,9.06198 -0.069246,9.06198 h -4.1857912 -4.1857912 l -0.1767334,-0.1757 -0.1762167,-0.17725 v -22.67097 -22.67097 l 2.024166,-0.17105 z m 27.5693785,0.1323 -0.077,2.18281 -0.07648,2.18333 H 23.530873 21.41834 l -0.265617,0.69763 -0.265617,0.69918 0.02429,20.17603 0.0248,20.17707 0.159164,0.15864 0.15968,0.15917 h 4.982642 4.983158 v -7.14272 -7.14427 h 2.075843 2.076359 l 2.421557,-0.17208 2.422075,-0.17208 v 7.17837 7.17889 l 0.595313,0.14573 0.595312,0.14728 4.233334,-0.0749 4.233333,-0.076 V 175.55079 154.6487 l -2.220019,-0.078 -2.22002,-0.077 0.150378,-1.98902 0.150379,-1.988 -0.498678,-0.18293 -0.498677,-0.18293 h -9.470224 z m 67.20417,0 9.259905,0.13177 9.26093,0.13333 0.13229,2.24895 0.13178,2.24896 2.11615,0.078 2.11615,0.078 0.185,0.18706 0.18552,0.18604 0.0362,4.49792 0.0372,4.49791 -0.0233,4.95991 -0.0217,4.96093 h -1.96319 -1.96319 l -0.41806,0.16124 -0.41858,0.16071 v 1.82314 1.82418 l -0.0661,0.0548 -0.0661,0.0553 -6.87865,0.14366 -6.879685,0.14315 -0.06976,8.6651 -0.06976,8.66459 h -4.626592 -4.626591 v -22.87561 -22.87612 l 2.315104,-0.077 z m 36.513015,0.077 5.29115,0.0202 5.29167,0.0207 2.40916,0.007 2.41018,0.007 0.17467,1.88516 0.17518,1.88515 0.14315,0.23203 0.14262,0.23099 1.50637,0.004 1.50585,0.004 0.5948,0.15916 0.59531,0.15968 v 12.20649 l -0.001,12.20597 -0.17415,6.53862 -0.17415,6.53914 -2.27273,0.076 -2.27325,0.0749 -0.0677,1.45625 -0.0693,1.45469 -0.13487,0.59531 -0.13488,0.59376 h -9.13123 -9.1307 l -0.11834,-0.33073 -0.11886,-0.33124 -0.0718,-1.85209 -0.0724,-1.85156 -2.18178,-0.0775 -2.18333,-0.076 V 173.30003 154.5358 l 2.31511,-0.077 2.3151,-0.076 0.077,-2.05104 0.078,-2.05 1.64176,-0.0269 z m 26.13278,0.0429 4.2323,0.0718 4.23281,0.0734 -0.0191,2.127 -0.0186,2.127 0.23358,0.37775 0.23306,0.37828 2.13217,-0.0811 2.13113,-0.0801 -0.016,1.27899 -0.016,1.28002 -0.20929,1.98386 -0.20877,1.98541 0.24598,0.31678 0.24598,0.31677 1.2361,0.0801 1.2361,0.0791 0.0749,2.98896 0.0749,2.98897 1.64383,-0.078 1.64486,-0.0791 0.13333,-8.99583 0.13177,-8.9948 4.43229,-0.0734 4.43074,-0.0718 v 23.15725 23.15673 l -1.52084,0.046 -1.52084,0.045 -2.38228,0.0522 -2.38073,0.0522 -0.52917,-0.19017 -0.52917,-0.18913 -0.13177,-4.20698 -0.13333,-4.20698 -1.52084,-0.0801 -1.52083,-0.0791 -0.004,-2.1699 -0.004,-2.16886 -0.20877,-0.32814 -0.20826,-0.32815 -1.43195,-0.27078 -1.43196,-0.27182 -0.19999,-0.19999 -0.19998,-0.19999 -0.0739,-3.69796 -0.0739,-3.699 -1.78335,-0.078 -1.78284,-0.0791 -0.0687,10.92595 -0.0692,10.92698 -4.08089,0.0729 -4.07986,0.0729 -0.22737,-0.22686 -0.22686,-0.22686 -0.13591,-13.20694 -0.13591,-13.20798 0.17983,-9.59838 z m -100.084339,0.0119 h 11.509376 11.509375 v 1.69809 1.69912 l 0.160714,0.41806 0.160714,0.4191 h 2.187463 2.187464 l 0.165364,0.82579 0.165365,0.82682 v 8.83099 8.82995 H 81.37489 79.141952 l -0.168982,0.27337 -0.168466,0.27285 -0.04547,2.21795 -0.04547,2.21692 0.148828,0.15038 0.149345,0.14986 2.298051,0.17673 2.298568,0.17725 v 7.87601 7.87704 l -0.160714,0.41909 -0.160714,0.41755 h -4.464844 -4.464843 l -0.0708,-6.6797 -0.0708,-6.68124 -1.496033,-0.0791 -1.495516,-0.0775 -0.161747,-0.64544 -0.161747,-0.64389 0.163814,-1.02474 0.163814,-1.02423 -0.754992,-0.13384 -0.75551,-0.13488 -2.447396,-0.0543 -2.447396,-0.0548 -0.04548,0.34881 -0.04496,0.34882 -0.04961,0.52916 -0.04961,0.52917 -0.03772,7.73906 -0.03721,7.73855 h -4.497917 -4.497917 v -22.88594 z m 158.353649,0.13333 -4.10104,0.0119 -4.10208,0.0119 -6.15104,0.0543 -6.15208,0.0537 -0.004,1.78594 -0.004,1.78594 -0.21239,0.33538 -0.21291,0.33589 -2.16576,0.16692 -2.16731,0.16691 0.0682,18.54719 0.0682,18.54771 1.91771,0.078 1.91926,0.077 v 2.19418 2.19315 l 0.1788,0.1788 0.17984,0.17983 10.47016,-0.0687 10.47016,-0.0703 0.077,-2.15284 0.076,-2.15284 1.77612,-0.22789 1.77457,-0.22841 0.0703,-10.88306 0.0687,-10.88151 -0.59893,-0.10438 -0.5979,-0.10284 -5.77174,0.0372 -5.77329,0.0367 -0.25373,0.25425 -0.25528,0.25476 0.0739,3.68298 0.0739,3.68298 1.50327,0.0791 1.50275,0.0791 0.13436,0.7152 0.13384,0.71365 0.004,3.04323 0.004,3.04271 -0.14211,0.73432 -0.14314,0.7338 -4.40904,-0.0729 -4.41006,-0.0718 -0.0677,-13.825 -0.0692,-13.82448 h 4.62298 4.62297 l 0.076,2.4474 0.076,2.44791 h 4.76198 4.76302 v -4.63021 -4.63072 l -1.7756,-0.078 -1.77612,-0.078 -0.076,-2.30322 z m -187.701213,0.13074 8.919353,0.004 8.918836,0.004 0.610298,0.16381 0.610816,0.16278 -0.08165,2.01641 -0.08113,2.0159 2.182813,0.076 2.182812,0.077 v 20.49488 20.49384 H 45.11147 40.745845 v -7.12773 -7.12825 l -0.198438,-0.11679 -0.198437,-0.11679 -4.762501,0.16692 -4.7625,0.16795 -0.07028,7.07812 -0.0708,7.07657 h -4.627625 -4.627108 l 0.0677,-20.43855 0.0677,-20.44009 2.248958,-0.1323 2.248959,-0.13177 0.077,-2.18281 z m 167.748943,0.26613 h 9.76736 9.76685 l 0.077,2.3151 0.076,2.31511 1.78594,0.0775 1.78594,0.078 v 4.22144 4.22197 h -4.35581 -4.35529 l -0.076,-2.44843 -0.077,-2.44688 h -5.02709 -5.02656 v 14.28698 14.28802 h 4.89479 4.89479 v -4.89479 -4.89531 l -1.52859,-0.0786 -1.5291,-0.0801 0.0739,-3.49229 0.0729,-3.49178 h 5.95312 5.95416 v 10.58282 10.58333 l -1.72031,0.13281 -1.71979,0.13178 -0.077,2.18333 -0.077,2.18178 -0.98082,0.0119 -0.98134,0.0124 -8.46667,0.0538 -8.46718,0.0553 -0.71727,-0.0832 -0.71778,-0.0832 -0.076,-2.29805 -0.076,-2.29857 -1.91823,-0.077 -1.91875,-0.078 v -18.07641 -18.0759 l 2.18281,-0.23513 2.18333,-0.23461 0.0656,-1.32292 0.0672,-1.32343 0.14418,-0.85886 z m -158.428581,7.93698 -2.434477,0.17312 -2.434994,0.17312 0.07906,6.45077 0.07906,6.4518 0.392224,0.24236 0.392741,0.24185 4.502051,-0.0532 4.502568,-0.0537 0.0708,-6.59598 0.0708,-6.59598 -0.33538,-0.21291 -0.33538,-0.21342 -2.27428,-0.004 z m 95.168871,0.2651 v 13.97796 13.979 l 0.17674,0.17673 0.17621,0.17622 h 4.70307 4.70256 l 0.17725,-0.28784 0.17777,-0.28732 -0.19586,-13.86789 -0.19585,-13.86686 h -4.8612 z m -66.013543,0.13178 -0.05529,3.04322 -0.05581,3.04168 0.146761,2.02003 0.146245,2.02003 4.671549,-0.0346 4.67155,-0.0362 v -5.02709 -5.02708 h -4.7625 z m 33.072918,0 v 4.89531 4.89376 l 2.513545,0.15296 2.51406,0.15193 2.38073,-0.0196 2.38125,-0.0202 v -5.02709 -5.02708 h -4.89531 z m -66.41042,0.26407 h 4.365625 4.365625 l 0.0708,6.28385 0.0708,6.28437 H 35.847434 31.46889 l -0.129191,-0.33693 -0.129191,-0.33641 0.07131,-5.94693 z m 108.703965,0 0.10594,13.69322 0.10697,13.69167 h -4.51807 -4.51911 v -13.62604 -13.62605 l 3.83698,-0.0475 3.83594,-0.047 0.57516,-0.0191 z m -66.238338,0.11989 v 4.62194 4.62245 l -4.241602,0.014 -4.242118,0.015 -0.130742,-0.34106 -0.130741,-0.3421 0.07286,-4.22197 0.07338,-4.22299 4.29948,-0.0729 z m 24.341668,0.0129 h 4.4974 4.49792 v 4.63021 4.63021 h -4.32067 -4.3217 l -0.176733,-0.17622 -0.176217,-0.17673 v -4.45347 z m -71.437504,49.20837 v 0.73588 0.73587 l 1.182874,2.07636 1.18339,2.07584 1.081588,1.40198 1.081071,1.40198 2.211235,2.12287 2.211234,2.12183 2.150257,1.59526 2.150773,1.59421 2.700094,1.51774 2.70061,1.51722 2.621029,1.15497 2.621546,1.15497 2.481502,0.92914 2.482019,0.92966 2.581755,0.73794 2.582271,0.73794 2.501657,0.42736 2.501139,0.42685 0.661458,0.10387 0.661459,0.10439 37.834903,-0.0362 37.83645,-0.0372 3.57188,-0.71572 3.57084,-0.71727 2.84427,-0.80099 2.84375,-0.80098 2.44792,-0.95395 2.44791,-0.95498 3.70417,-1.80506 3.70416,-1.80609 2.91094,-1.90789 2.9099,-1.9079 2.78019,-2.80706 2.77967,-2.8081 1.13223,-2.24896 1.13172,-2.24895 0.15916,-1.38183 0.15916,-1.38131 -26.42836,-0.0791 -26.42888,-0.0796 -51.130212,-0.062 z m 0.529167,0.51677 76.839757,0.0739 76.83924,0.0754 0.19482,0.19379 0.19431,0.19482 -0.46819,1.73116 -0.46922,1.73116 -0.97876,1.5136 -0.97926,1.51412 -1.5689,1.69499 -1.56993,1.69395 -1.74511,1.3932 -1.7446,1.3932 -2.09135,1.36477 -2.09082,1.36478 -3.96927,1.9451 -3.96875,1.9451 -2.54403,0.93482 -2.54403,0.93638 -3.59203,0.94465 -3.59203,0.94516 -3.52072,0.5178 -3.52226,0.51831 -36.77709,-0.0202 -36.776567,-0.0212 -2.645833,-0.4656 -2.645834,-0.46613 -2.645833,-0.74414 -2.645834,-0.74414 -3.175,-1.17667 -3.175,-1.17616 -3.499011,-1.67173 -3.499012,-1.67121 -2.321822,-1.51412 -2.321822,-1.51309 -1.852084,-1.51877 -1.852083,-1.5198 -1.736328,-1.81695 -1.735812,-1.81746 -1.07952,-1.45469 -1.079004,-1.45521 -0.822689,-1.55908 -0.822689,-1.55804 v -0.36794 z"
         id="path269-2"
         style="display:inline;stroke:#000000;stroke-width:0.0264583;stroke-dasharray:none" /></g></g></svg>
